<svg width="37" height="38" viewBox="0 0 37 38" fill="none" xmlns="http://www.w3.org/2000/svg">
<path d="M10.1312 27.6945C15.7086 33.2719 22.6703 37.6656 28.4082 37.6656C31.0364 37.6656 33.2834 36.7628 35.1291 34.7766C36.1523 33.6932 36.9147 32.2888 36.9147 30.9446C36.9147 29.9816 36.5536 29.0588 35.5705 28.3766L29.4514 24.0632C28.6088 23.4814 27.8665 23.1604 27.1643 23.1604C26.2615 23.1604 25.4189 23.6419 24.496 24.5447L23.0314 25.9691C22.8107 26.1898 22.5499 26.2701 22.2691 26.2701C21.9882 26.2701 21.7274 26.1698 21.5067 26.0694C20.323 25.4475 18.1562 23.7422 16.1299 21.6958C14.0836 19.6494 12.3381 17.5228 11.7563 16.299C11.656 16.0783 11.5557 15.8175 11.5557 15.5768C11.5557 15.3159 11.6359 15.0752 11.8566 14.8545L13.2811 13.3498C14.1638 12.3868 14.6453 11.5442 14.6453 10.6614C14.6453 9.9392 14.3444 9.19689 13.7425 8.35426L9.52937 2.3957C8.82718 1.41264 7.84411 0.971261 6.76074 0.971261C5.4968 0.971261 4.13255 1.5932 2.96893 2.73676C1.04293 4.60257 0.200302 6.90976 0.200302 9.4577C0.200302 15.1956 4.5338 22.0971 10.1312 27.6945Z" fill="white"/>
</svg>
