<svg width="428" height="312" viewBox="0 0 428 312" fill="none" xmlns="http://www.w3.org/2000/svg">
<g filter="url(#filter0_dd_1763_17057)">
<path d="M18.625 18.0896C18.625 13.0469 22.7129 8.95898 27.7557 8.95898H402.113C407.156 8.95898 411.244 13.0469 411.244 18.0897V246.356C411.244 251.399 407.156 255.487 402.113 255.487H27.7557C22.7129 255.487 18.625 251.399 18.625 246.356V18.0896Z" fill="#262638"/>
<mask id="mask0_1763_17057" style="mask-type:alpha" maskUnits="userSpaceOnUse" x="18" y="8" width="394" height="248">
<path d="M18.625 18.0896C18.625 13.0469 22.7129 8.95898 27.7557 8.95898H402.113C407.156 8.95898 411.244 13.0469 411.244 18.0897V246.356C411.244 251.399 407.156 255.487 402.113 255.487H27.7557C22.7129 255.487 18.625 251.399 18.625 246.356V18.0896Z" fill="#151522"/>
</mask>
<g mask="url(#mask0_1763_17057)">
<path opacity="0.1" d="M1260.6 222.383C1260.6 218.389 1258.52 214.689 1255.1 212.629C1160.45 155.627 1049.63 96.432 923.356 110.917C832.477 121.337 772.681 178.795 692.734 206.779C588.885 243.1 507.47 196.717 414.552 165.517C289.166 123.48 134.249 134.912 22.4055 194.454C0.198654 206.304 -21.4029 220.118 -43.1332 233.721C-53.043 239.924 -48.625 255.901 -36.9337 255.901H1249.19C1255.49 255.901 1260.6 250.791 1260.6 244.488V222.383Z" fill="white"/>
<path opacity="0.1" d="M837.247 255.864C837.247 255.881 837.229 255.892 837.214 255.884C830.291 252.437 823.367 249.048 816.526 245.66C652.472 165.874 455.052 124.73 259.265 129.374C91.3625 133.414 -70.8642 171.957 -214.308 235.083C-225.379 239.956 -221.815 255.841 -209.718 255.841H837.224C837.236 255.841 837.247 255.851 837.247 255.864Z" fill="white"/>
</g>
<path d="M371.074 48.235L374.353 45.2436C375.737 46.6635 377.145 48.1273 378.569 49.5632C381.046 52.06 383.57 54.5089 386.019 57.0337C387.958 59.028 387.95 61.3772 386.019 63.3675C383.658 65.7885 381.233 68.1537 378.84 70.5468C376.211 73.1274 373.814 72.9439 371.381 69.8847L374.129 67.4198C375.075 68.3093 375.837 67.8825 376.738 66.9372C378.884 64.6996 381.169 62.5817 383.347 60.4558L371.074 48.235Z" fill="white"/>
<path d="M369.225 40.3377L366.605 43.1297L365.304 42.332L357.475 50.1575C361.408 54.0822 365.364 58.0468 369.289 61.9715L366.361 64.8352C362.373 60.9105 358.177 56.8901 354.113 52.734C352.757 51.346 352.868 48.9011 354.248 47.4413C356.937 44.6014 359.693 41.8055 362.548 39.1332C364.599 37.2346 366.888 37.6973 369.225 40.3377Z" fill="white"/>
<path d="M355.526 56.5032L358.154 58.9442L357.089 60.2405L365.106 68.2893L377.148 56.0166L380.155 59.1795C377.581 61.7083 375 64.2463 372.413 66.7936C371.089 68.0979 369.797 69.4341 368.465 70.7263C366.175 72.944 363.962 72.944 361.72 70.7263C359.478 68.5087 357.301 66.327 355.095 64.1173C352.235 61.2456 352.335 59.2114 355.526 56.5032Z" fill="white"/>
<path d="M385.126 53.8708C384.495 52.6742 382.334 52.5306 383.036 50.4367C383.099 50.2492 382.732 49.8783 382.509 49.6389C380.116 47.17 377.687 44.7131 375.122 42.1046L363.229 54.0702L360.672 50.9871C361.821 49.8982 363.165 48.6657 364.465 47.3974C367.014 44.8806 369.526 42.32 372.075 39.8192C373.958 37.9406 376.167 37.8967 378.042 39.7354C380.654 42.2841 383.227 44.8567 385.784 47.4812C387.79 49.5432 387.551 51.8167 385.126 53.8708Z" fill="white"/>
<mask id="mask1_1763_17057" style="mask-type:alpha" maskUnits="userSpaceOnUse" x="46" y="41" width="37" height="28">
<rect x="46.0156" y="41.487" width="36.5227" height="27.392" rx="9.13067" fill="#FFBA49"/>
</mask>
<g mask="url(#mask1_1763_17057)">
<rect x="46.0156" y="41.487" width="36.5227" height="27.392" rx="9.13067" fill="#FFDF92"/>
<rect x="39.168" y="43.7696" width="22.8267" height="7.98933" rx="2.85333" fill="#FFCF5C" stroke="white" stroke-opacity="0.3" stroke-width="0.3424"/>
<rect x="39.168" y="51.759" width="22.8267" height="7.98933" rx="2.85333" fill="#FFCF5C" stroke="white" stroke-opacity="0.3" stroke-width="0.3424"/>
<rect x="39.168" y="59.7483" width="22.8267" height="7.98933" rx="2.85333" fill="#FFCF5C" stroke="white" stroke-opacity="0.3" stroke-width="0.3424"/>
<rect x="67.7012" y="43.7696" width="22.8267" height="7.98933" rx="2.85333" fill="#FFCF5C" stroke="white" stroke-opacity="0.3" stroke-width="0.3424"/>
<rect x="67.7012" y="51.759" width="22.8267" height="7.98933" rx="2.85333" fill="#FFCF5C" stroke="white" stroke-opacity="0.3" stroke-width="0.3424"/>
<rect x="67.7012" y="59.7483" width="22.8267" height="7.98933" rx="2.85333" fill="#FFCF5C" stroke="white" stroke-opacity="0.3" stroke-width="0.3424"/>
</g>
<path fill-rule="evenodd" clip-rule="evenodd" d="M334.057 186.226C334.057 183.705 336.101 181.661 338.622 181.661H384.275C386.797 181.661 388.841 183.705 388.841 186.226V231.88C388.841 234.401 386.797 236.445 384.275 236.445H338.622C336.101 236.445 334.057 234.401 334.057 231.88V186.226Z" fill="white"/>
<path d="M334.627 186.226C334.627 184.02 336.416 182.232 338.622 182.232H384.275C386.482 182.232 388.27 184.02 388.27 186.226V231.88C388.27 234.086 386.482 235.874 384.275 235.874H338.622C336.416 235.874 334.627 234.086 334.627 231.88V186.226Z" stroke="#E4E4E4" stroke-opacity="0.6" stroke-width="1.14133"/>
<circle cx="369.71" cy="209.053" r="12.7003" fill="#F79E1B"/>
<circle cx="353.185" cy="209.053" r="12.7003" fill="#EB001B"/>
<path d="M63.7661 124.944L63.8164 121.705L60.979 123.462L60.05 122.031L63.0631 120.273L60.1002 118.516L61.0543 117.085L63.7912 118.817L63.7661 115.678H65.4987L65.4485 118.792L68.1854 117.085L69.1395 118.516L66.2017 120.273L69.2149 122.031L68.2356 123.462L65.4485 121.73L65.4987 124.944H63.7661ZM80.5139 124.944L80.5641 121.705L77.7267 123.462L76.7977 122.031L79.8108 120.273L76.8479 118.516L77.8021 117.085L80.539 118.817L80.5139 115.678H82.2464L82.1962 118.792L84.9331 117.085L85.8873 118.516L82.9495 120.273L85.9626 122.031L84.9833 123.462L82.1962 121.73L82.2464 124.944H80.5139ZM97.2616 124.944L97.3118 121.705L94.4745 123.462L93.5454 122.031L96.5585 120.273L93.5956 118.516L94.5498 117.085L97.2867 118.817L97.2616 115.678H98.9941L98.9439 118.792L101.681 117.085L102.635 118.516L99.6972 120.273L102.71 122.031L101.731 123.462L98.9439 121.73L98.9941 124.944H97.2616ZM114.009 124.944L114.06 121.705L111.222 123.462L110.293 122.031L113.306 120.273L110.343 118.516L111.298 117.085L114.034 118.817L114.009 115.678H115.742L115.692 118.792L118.429 117.085L119.383 118.516L116.445 120.273L119.458 122.031L118.479 123.462L115.692 121.73L115.742 124.944H114.009ZM136.005 124.944L136.055 121.705L133.217 123.462L132.288 122.031L135.301 120.273L132.339 118.516L133.293 117.085L136.03 118.817L136.005 115.678H137.737L137.687 118.792L140.424 117.085L141.378 118.516L138.44 120.273L141.453 122.031L140.474 123.462L137.687 121.73L137.737 124.944H136.005ZM152.752 124.944L152.802 121.705L149.965 123.462L149.036 122.031L152.049 120.273L149.086 118.516L150.04 117.085L152.777 118.817L152.752 115.678H154.485L154.435 118.792L157.171 117.085L158.126 118.516L155.188 120.273L158.201 122.031L157.222 123.462L154.435 121.73L154.485 124.944H152.752ZM169.5 124.944L169.55 121.705L166.713 123.462L165.784 122.031L168.797 120.273L165.834 118.516L166.788 117.085L169.525 118.817L169.5 115.678H171.233L171.182 118.792L173.919 117.085L174.873 118.516L171.936 120.273L174.949 122.031L173.969 123.462L171.182 121.73L171.233 124.944H169.5ZM186.248 124.944L186.298 121.705L183.461 123.462L182.532 122.031L185.545 120.273L182.582 118.516L183.536 117.085L186.273 118.817L186.248 115.678H187.98L187.93 118.792L190.667 117.085L191.621 118.516L188.683 120.273L191.696 122.031L190.717 123.462L187.93 121.73L187.98 124.944H186.248ZM208.243 124.944L208.293 121.705L205.456 123.462L204.527 122.031L207.54 120.273L204.577 118.516L205.531 117.085L208.268 118.817L208.243 115.678H209.975L209.925 118.792L212.662 117.085L213.616 118.516L210.678 120.273L213.692 122.031L212.712 123.462L209.925 121.73L209.975 124.944H208.243ZM224.991 124.944L225.041 121.705L222.203 123.462L221.274 122.031L224.288 120.273L221.325 118.516L222.279 117.085L225.016 118.817L224.991 115.678H226.723L226.673 118.792L229.41 117.085L230.364 118.516L227.426 120.273L230.439 122.031L229.46 123.462L226.673 121.73L226.723 124.944H224.991ZM241.738 124.944L241.789 121.705L238.951 123.462L238.022 122.031L241.035 120.273L238.072 118.516L239.027 117.085L241.763 118.817L241.738 115.678H243.471L243.421 118.792L246.158 117.085L247.112 118.516L244.174 120.273L247.187 122.031L246.208 123.462L243.421 121.73L243.471 124.944H241.738ZM258.486 124.944L258.536 121.705L255.699 123.462L254.77 122.031L257.783 120.273L254.82 118.516L255.774 117.085L258.511 118.817L258.486 115.678H260.219L260.168 118.792L262.905 117.085L263.859 118.516L260.922 120.273L263.935 122.031L262.956 123.462L260.168 121.73L260.219 124.944H258.486ZM282.867 133.531C281.611 133.531 280.431 133.314 279.326 132.878C278.238 132.426 277.292 131.782 276.489 130.945L278.121 129.388C278.824 130.125 279.535 130.652 280.255 130.97C280.992 131.271 281.854 131.422 282.842 131.422C283.628 131.422 284.323 131.288 284.926 131.02C285.545 130.752 286.022 130.384 286.357 129.915C286.692 129.447 286.859 128.903 286.859 128.283C286.859 127.714 286.708 127.212 286.407 126.777C286.122 126.325 285.729 125.982 285.227 125.747C284.741 125.496 284.164 125.371 283.494 125.371H281.36V123.337H283.319C284.206 123.337 284.917 123.077 285.453 122.558C285.989 122.039 286.256 121.362 286.256 120.525C286.256 119.972 286.106 119.47 285.804 119.018C285.503 118.566 285.085 118.214 284.549 117.963C284.03 117.696 283.436 117.562 282.766 117.562C281.879 117.562 281.092 117.721 280.406 118.039C279.736 118.34 279.042 118.876 278.322 119.646L276.69 118.089C277.493 117.218 278.422 116.557 279.477 116.105C280.531 115.637 281.645 115.402 282.816 115.402C283.955 115.402 284.959 115.611 285.83 116.03C286.717 116.448 287.411 117.034 287.914 117.788C288.433 118.524 288.692 119.361 288.692 120.299C288.692 121.219 288.382 122.048 287.763 122.784C287.16 123.504 286.365 124.006 285.378 124.291C286.566 124.542 287.512 125.044 288.215 125.798C288.918 126.534 289.27 127.404 289.27 128.409C289.27 129.397 288.993 130.275 288.441 131.045C287.905 131.815 287.152 132.426 286.181 132.878C285.21 133.314 284.105 133.531 282.867 133.531ZM297.234 115.402C298.64 115.402 299.879 115.771 300.95 116.507C302.022 117.227 302.859 118.223 303.461 119.495C304.064 120.767 304.365 122.249 304.365 123.939C304.365 125.864 304.03 127.547 303.361 128.986C302.691 130.409 301.745 131.522 300.523 132.326C299.318 133.113 297.904 133.506 296.28 133.506C295.493 133.506 294.698 133.381 293.895 133.129C293.091 132.878 292.396 132.544 291.81 132.125L293.091 130.317C293.61 130.652 294.154 130.911 294.723 131.096C295.292 131.263 295.878 131.347 296.481 131.347C297.619 131.347 298.59 131.054 299.393 130.468C300.214 129.882 300.841 129.045 301.277 127.957C301.712 126.852 301.938 125.546 301.955 124.04C301.335 124.86 300.59 125.505 299.72 125.973C298.849 126.425 297.946 126.651 297.008 126.651C295.853 126.651 294.832 126.417 293.945 125.948C293.058 125.463 292.363 124.818 291.861 124.015C291.359 123.195 291.107 122.257 291.107 121.202C291.107 120.081 291.375 119.085 291.911 118.214C292.447 117.344 293.175 116.658 294.095 116.156C295.016 115.653 296.062 115.402 297.234 115.402ZM297.36 124.718C298.23 124.718 299.05 124.517 299.82 124.115C300.607 123.697 301.285 123.136 301.854 122.433C301.72 121.428 301.444 120.558 301.026 119.821C300.624 119.085 300.105 118.516 299.469 118.114C298.833 117.696 298.113 117.486 297.309 117.486C296.59 117.486 295.937 117.645 295.351 117.963C294.782 118.281 294.33 118.717 293.995 119.269C293.677 119.821 293.518 120.449 293.518 121.152C293.518 121.839 293.677 122.458 293.995 123.01C294.33 123.546 294.79 123.965 295.376 124.266C295.962 124.567 296.623 124.718 297.36 124.718ZM316.294 133.255V128.786H306.325V126.802L315.993 115.678H318.78V126.676H320.914V128.786H318.78V133.255H316.294ZM309.313 126.676H316.294V118.641L309.313 126.676ZM323.511 133.255L331.897 117.813H321.653V115.678H334.509V117.511L326.323 133.255H323.511Z" fill="white"/>
<path d="M56.8344 194.58C56.1983 194.58 55.604 194.467 55.0516 194.241C54.4992 194.006 54.0137 193.684 53.5953 193.274C53.1768 192.856 52.8503 192.374 52.616 191.83C52.39 191.278 52.277 190.684 52.277 190.048C52.277 189.411 52.39 188.821 52.616 188.277C52.8503 187.725 53.1768 187.244 53.5953 186.834C54.0137 186.415 54.4992 186.093 55.0516 185.867C55.604 185.632 56.1983 185.515 56.8344 185.515C57.2947 185.515 57.7341 185.574 58.1526 185.691C58.5795 185.8 58.9728 185.963 59.3327 186.181C59.701 186.39 60.0274 186.649 60.312 186.959L59.6717 187.637C59.3286 187.244 58.9059 186.942 58.4037 186.733C57.9015 186.515 57.3784 186.407 56.8344 186.407C56.3238 186.407 55.8509 186.499 55.4157 186.683C54.9805 186.867 54.5996 187.126 54.2732 187.461C53.9552 187.788 53.7041 188.173 53.5199 188.616C53.3442 189.052 53.2563 189.529 53.2563 190.048C53.2563 190.558 53.3442 191.035 53.5199 191.479C53.7041 191.922 53.9593 192.312 54.2858 192.646C54.6122 192.973 54.993 193.228 55.4282 193.412C55.8718 193.596 56.3489 193.688 56.8595 193.688C57.4035 193.688 57.9224 193.584 58.4162 193.375C58.9101 193.157 59.3244 192.86 59.6592 192.483L60.2869 193.136C59.994 193.437 59.6633 193.697 59.2951 193.914C58.9352 194.132 58.546 194.299 58.1275 194.417C57.709 194.525 57.278 194.58 56.8344 194.58ZM63.5596 194.555C63.0993 194.555 62.6934 194.475 62.3418 194.316C61.9987 194.157 61.7267 193.935 61.5258 193.651C61.3333 193.366 61.237 193.036 61.237 192.659C61.237 192.065 61.463 191.596 61.915 191.253C62.3669 190.91 62.9779 190.738 63.748 190.738C64.4259 190.738 65.0411 190.88 65.5935 191.165V190.336C65.5935 189.834 65.4512 189.457 65.1666 189.206C64.8821 188.947 64.4678 188.817 63.9237 188.817C63.614 188.817 63.3002 188.863 62.9821 188.955C62.6724 189.039 62.3293 189.177 61.9526 189.37L61.6011 188.654C62.0531 188.436 62.4716 188.277 62.8566 188.177C63.2416 188.076 63.6266 188.026 64.0116 188.026C64.8067 188.026 65.4177 188.215 65.8446 188.591C66.2798 188.968 66.4974 189.508 66.4974 190.211V194.442H65.5935V193.826C65.3089 194.069 64.9951 194.253 64.6519 194.379C64.3171 194.496 63.953 194.555 63.5596 194.555ZM62.1284 192.634C62.1284 192.985 62.2749 193.274 62.5678 193.5C62.8691 193.718 63.2541 193.826 63.7228 193.826C64.0995 193.826 64.4427 193.768 64.7523 193.651C65.062 193.534 65.3424 193.349 65.5935 193.098V191.918C65.334 191.742 65.0578 191.617 64.7649 191.542C64.4719 191.458 64.1413 191.416 63.7731 191.416C63.2709 191.416 62.8691 191.529 62.5678 191.755C62.2749 191.973 62.1284 192.266 62.1284 192.634ZM68.0495 194.442V188.152H68.9785V189.043C69.1711 188.717 69.4138 188.466 69.7067 188.29C70.008 188.106 70.3512 188.014 70.7362 188.014C70.9538 188.014 71.1505 188.043 71.3263 188.102V188.955C71.2175 188.913 71.1087 188.884 70.9998 188.867C70.891 188.851 70.7822 188.842 70.6734 188.842C70.2884 188.842 69.9494 188.955 69.6565 189.181C69.3719 189.399 69.1459 189.717 68.9785 190.135V194.442H68.0495ZM74.8233 194.542C74.2374 194.542 73.7018 194.4 73.2163 194.115C72.7393 193.822 72.3584 193.433 72.0739 192.948C71.7977 192.454 71.6596 191.901 71.6596 191.29C71.6596 190.679 71.7977 190.131 72.0739 189.646C72.3584 189.16 72.7393 188.775 73.2163 188.491C73.7018 188.198 74.2416 188.051 74.8359 188.051C75.2042 188.051 75.5599 188.114 75.903 188.24C76.2462 188.357 76.5601 188.533 76.8446 188.767V185.653L77.7737 185.44V194.442H76.8572V193.776C76.3048 194.287 75.6268 194.542 74.8233 194.542ZM74.9112 193.726C75.3046 193.726 75.6687 193.651 76.0035 193.5C76.3466 193.341 76.627 193.123 76.8446 192.847V189.734C76.627 189.466 76.3466 189.257 76.0035 189.106C75.6687 188.947 75.3046 188.867 74.9112 188.867C74.476 188.867 74.0784 188.972 73.7185 189.181C73.367 189.39 73.0866 189.679 72.8774 190.048C72.6765 190.407 72.576 190.818 72.576 191.278C72.576 191.738 72.6765 192.153 72.8774 192.521C73.0866 192.889 73.367 193.182 73.7185 193.4C74.0784 193.617 74.476 193.726 74.9112 193.726ZM82.2267 194.442V185.653H83.1934V189.583H88.3031V185.653H89.2698V194.442H88.3031V190.449H83.1934V194.442H82.2267ZM93.9508 194.567C93.3565 194.567 92.8125 194.425 92.3187 194.14C91.8332 193.847 91.4482 193.454 91.1636 192.96C90.8791 192.466 90.7368 191.914 90.7368 191.303C90.7368 190.692 90.8791 190.14 91.1636 189.646C91.4482 189.152 91.8332 188.763 92.3187 188.478C92.8125 188.185 93.3565 188.039 93.9508 188.039C94.5534 188.039 95.0974 188.185 95.5829 188.478C96.0683 188.763 96.4533 189.152 96.7379 189.646C97.0225 190.14 97.1648 190.692 97.1648 191.303C97.1648 191.914 97.0225 192.466 96.7379 192.96C96.4533 193.454 96.0683 193.847 95.5829 194.14C95.0974 194.425 94.5534 194.567 93.9508 194.567ZM93.9508 193.739C94.3776 193.739 94.7626 193.63 95.1058 193.412C95.4573 193.195 95.7335 192.902 95.9344 192.533C96.1436 192.165 96.2483 191.755 96.2483 191.303C96.2483 190.843 96.1436 190.433 95.9344 190.073C95.7335 189.704 95.4573 189.411 95.1058 189.194C94.7626 188.976 94.3776 188.867 93.9508 188.867C93.5239 188.867 93.1347 188.976 92.7832 189.194C92.44 189.411 92.1638 189.704 91.9546 190.073C91.7537 190.433 91.6533 190.843 91.6533 191.303C91.6533 191.755 91.7537 192.165 91.9546 192.533C92.1638 192.902 92.44 193.195 92.7832 193.412C93.1347 193.63 93.5239 193.739 93.9508 193.739ZM98.4553 194.442V185.653L99.3844 185.44V194.442H98.4553ZM103.844 194.542C103.258 194.542 102.722 194.4 102.237 194.115C101.76 193.822 101.379 193.433 101.094 192.948C100.818 192.454 100.68 191.901 100.68 191.29C100.68 190.679 100.818 190.131 101.094 189.646C101.379 189.16 101.76 188.775 102.237 188.491C102.722 188.198 103.262 188.051 103.856 188.051C104.225 188.051 104.58 188.114 104.923 188.24C105.267 188.357 105.58 188.533 105.865 188.767V185.653L106.794 185.44V194.442H105.878V193.776C105.325 194.287 104.647 194.542 103.844 194.542ZM103.932 193.726C104.325 193.726 104.689 193.651 105.024 193.5C105.367 193.341 105.647 193.123 105.865 192.847V189.734C105.647 189.466 105.367 189.257 105.024 189.106C104.689 188.947 104.325 188.867 103.932 188.867C103.496 188.867 103.099 188.972 102.739 189.181C102.387 189.39 102.107 189.679 101.898 190.048C101.697 190.407 101.596 190.818 101.596 191.278C101.596 191.738 101.697 192.153 101.898 192.521C102.107 192.889 102.387 193.182 102.739 193.4C103.099 193.617 103.496 193.726 103.932 193.726ZM111.324 194.555C110.722 194.555 110.174 194.412 109.68 194.128C109.194 193.835 108.805 193.441 108.512 192.948C108.228 192.454 108.085 191.901 108.085 191.29C108.085 190.688 108.223 190.144 108.5 189.658C108.776 189.165 109.148 188.775 109.617 188.491C110.086 188.198 110.609 188.051 111.186 188.051C111.747 188.051 112.249 188.198 112.693 188.491C113.145 188.775 113.5 189.165 113.76 189.658C114.028 190.144 114.162 190.688 114.162 191.29V191.579H109.002C109.052 191.989 109.182 192.358 109.391 192.684C109.609 193.01 109.889 193.27 110.232 193.462C110.575 193.647 110.952 193.739 111.362 193.739C111.688 193.739 112.006 193.688 112.316 193.588C112.626 193.487 112.885 193.345 113.095 193.161L113.672 193.776C113.321 194.036 112.952 194.232 112.567 194.366C112.191 194.492 111.776 194.555 111.324 194.555ZM109.027 190.838H113.233C113.182 190.462 113.057 190.127 112.856 189.834C112.664 189.533 112.421 189.298 112.128 189.131C111.835 188.955 111.513 188.867 111.161 188.867C110.801 188.867 110.471 188.951 110.169 189.118C109.868 189.286 109.617 189.52 109.416 189.822C109.215 190.114 109.085 190.453 109.027 190.838ZM115.461 194.442V188.152H116.39V189.043C116.582 188.717 116.825 188.466 117.118 188.29C117.419 188.106 117.762 188.014 118.147 188.014C118.365 188.014 118.562 188.043 118.737 188.102V188.955C118.628 188.913 118.52 188.884 118.411 188.867C118.302 188.851 118.193 188.842 118.084 188.842C117.699 188.842 117.36 188.955 117.068 189.181C116.783 189.399 116.557 189.717 116.39 190.135V194.442H115.461ZM122.674 194.442V185.653H123.64L128.926 192.784V185.653H129.842V194.442H128.989L123.59 187.122V194.442H122.674ZM133.456 194.555C132.996 194.555 132.59 194.475 132.238 194.316C131.895 194.157 131.623 193.935 131.422 193.651C131.23 193.366 131.134 193.036 131.134 192.659C131.134 192.065 131.36 191.596 131.812 191.253C132.264 190.91 132.875 190.738 133.645 190.738C134.323 190.738 134.938 190.88 135.49 191.165V190.336C135.49 189.834 135.348 189.457 135.063 189.206C134.779 188.947 134.364 188.817 133.82 188.817C133.511 188.817 133.197 188.863 132.879 188.955C132.569 189.039 132.226 189.177 131.849 189.37L131.498 188.654C131.95 188.436 132.368 188.277 132.753 188.177C133.138 188.076 133.523 188.026 133.908 188.026C134.703 188.026 135.314 188.215 135.741 188.591C136.176 188.968 136.394 189.508 136.394 190.211V194.442H135.49V193.826C135.206 194.069 134.892 194.253 134.549 194.379C134.214 194.496 133.85 194.555 133.456 194.555ZM132.025 192.634C132.025 192.985 132.172 193.274 132.464 193.5C132.766 193.718 133.151 193.826 133.619 193.826C133.996 193.826 134.339 193.768 134.649 193.651C134.959 193.534 135.239 193.349 135.49 193.098V191.918C135.231 191.742 134.954 191.617 134.662 191.542C134.369 191.458 134.038 191.416 133.67 191.416C133.168 191.416 132.766 191.529 132.464 191.755C132.172 191.973 132.025 192.266 132.025 192.634ZM137.946 194.442V188.152H138.875V188.842C139.352 188.298 139.967 188.026 140.721 188.026C141.164 188.026 141.558 188.131 141.901 188.34C142.244 188.541 142.512 188.817 142.704 189.169C142.964 188.784 143.273 188.499 143.633 188.315C143.993 188.122 144.403 188.026 144.864 188.026C145.324 188.026 145.726 188.131 146.069 188.34C146.412 188.541 146.68 188.826 146.873 189.194C147.073 189.554 147.174 189.976 147.174 190.462V194.442H146.257V190.65C146.257 190.089 146.111 189.65 145.818 189.332C145.525 189.005 145.127 188.842 144.625 188.842C144.282 188.842 143.968 188.93 143.684 189.106C143.399 189.273 143.156 189.529 142.955 189.872C142.972 189.964 142.985 190.06 142.993 190.161C143.01 190.253 143.018 190.353 143.018 190.462V194.442H142.102V190.65C142.102 190.089 141.955 189.65 141.662 189.332C141.369 189.005 140.976 188.842 140.482 188.842C140.147 188.842 139.842 188.922 139.566 189.081C139.298 189.231 139.068 189.457 138.875 189.759V194.442H137.946ZM151.686 194.555C151.083 194.555 150.535 194.412 150.041 194.128C149.556 193.835 149.166 193.441 148.873 192.948C148.589 192.454 148.447 191.901 148.447 191.29C148.447 190.688 148.585 190.144 148.861 189.658C149.137 189.165 149.51 188.775 149.978 188.491C150.447 188.198 150.97 188.051 151.548 188.051C152.108 188.051 152.611 188.198 153.054 188.491C153.506 188.775 153.862 189.165 154.121 189.658C154.389 190.144 154.523 190.688 154.523 191.29V191.579H149.363C149.413 191.989 149.543 192.358 149.752 192.684C149.97 193.01 150.25 193.27 150.593 193.462C150.937 193.647 151.313 193.739 151.723 193.739C152.05 193.739 152.368 193.688 152.677 193.588C152.987 193.487 153.247 193.345 153.456 193.161L154.033 193.776C153.682 194.036 153.314 194.232 152.929 194.366C152.552 194.492 152.138 194.555 151.686 194.555ZM149.388 190.838H153.594C153.544 190.462 153.418 190.127 153.217 189.834C153.025 189.533 152.782 189.298 152.489 189.131C152.196 188.955 151.874 188.867 151.522 188.867C151.163 188.867 150.832 188.951 150.531 189.118C150.229 189.286 149.978 189.52 149.777 189.822C149.576 190.114 149.447 190.453 149.388 190.838Z" fill="#999999"/>
<path d="M197.641 194.442V185.653H203.93V186.507H198.607V189.583H202.085V190.424H198.607V193.588H203.981V194.442H197.641ZM204.473 194.442L206.946 191.203L204.598 188.152H205.703L207.486 190.512L209.269 188.152H210.336L208.013 191.19L210.499 194.442H209.394L207.473 191.88L205.528 194.442H204.473ZM211.368 197.003V188.152H212.285V188.83C212.829 188.311 213.507 188.051 214.318 188.051C214.913 188.051 215.448 188.198 215.925 188.491C216.403 188.775 216.779 189.16 217.055 189.646C217.34 190.131 217.482 190.679 217.482 191.29C217.482 191.901 217.34 192.454 217.055 192.948C216.779 193.433 216.403 193.822 215.925 194.115C215.448 194.4 214.909 194.542 214.306 194.542C213.938 194.542 213.582 194.479 213.239 194.354C212.896 194.228 212.582 194.048 212.297 193.814V197.003H211.368ZM214.231 193.726C214.674 193.726 215.072 193.621 215.423 193.412C215.775 193.195 216.051 192.906 216.252 192.546C216.461 192.178 216.566 191.763 216.566 191.303C216.566 190.843 216.461 190.428 216.252 190.06C216.051 189.692 215.775 189.403 215.423 189.194C215.072 188.976 214.674 188.867 214.231 188.867C213.837 188.867 213.469 188.947 213.126 189.106C212.791 189.257 212.515 189.47 212.297 189.746V192.86C212.515 193.128 212.795 193.341 213.138 193.5C213.481 193.651 213.846 193.726 214.231 193.726ZM218.773 194.442V188.152H219.702V194.442H218.773ZM219.238 186.947C219.071 186.947 218.924 186.884 218.798 186.758C218.673 186.633 218.61 186.486 218.61 186.319C218.61 186.143 218.673 185.997 218.798 185.879C218.924 185.754 219.071 185.691 219.238 185.691C219.414 185.691 219.56 185.754 219.677 185.879C219.803 185.997 219.866 186.143 219.866 186.319C219.866 186.486 219.803 186.633 219.677 186.758C219.56 186.884 219.414 186.947 219.238 186.947ZM221.287 194.442V188.152H222.216V189.043C222.408 188.717 222.651 188.466 222.944 188.29C223.245 188.106 223.588 188.014 223.973 188.014C224.191 188.014 224.388 188.043 224.564 188.102V188.955C224.455 188.913 224.346 188.884 224.237 188.867C224.128 188.851 224.019 188.842 223.911 188.842C223.526 188.842 223.187 188.955 222.894 189.181C222.609 189.399 222.383 189.717 222.216 190.135V194.442H221.287ZM226.013 197.128C225.896 197.128 225.783 197.12 225.674 197.103C225.574 197.095 225.49 197.082 225.423 197.066V196.224C225.565 196.258 225.741 196.275 225.95 196.275C226.503 196.275 226.921 195.948 227.206 195.295L227.583 194.429L225.021 188.152H226.051L228.085 193.312L230.282 188.152H231.286L228.147 195.421C227.972 195.823 227.783 196.149 227.583 196.4C227.382 196.651 227.151 196.835 226.892 196.953C226.641 197.07 226.348 197.128 226.013 197.128ZM235.989 193.563H237.973C238.483 193.563 238.956 193.475 239.392 193.299C239.827 193.123 240.208 192.877 240.534 192.558C240.86 192.24 241.112 191.868 241.287 191.441C241.471 191.014 241.564 190.55 241.564 190.048C241.564 189.545 241.471 189.081 241.287 188.654C241.112 188.227 240.86 187.855 240.534 187.537C240.208 187.219 239.827 186.972 239.392 186.796C238.956 186.62 238.483 186.532 237.973 186.532H235.989V193.563ZM235.023 194.442V185.653H237.923C238.592 185.653 239.207 185.762 239.768 185.98C240.329 186.197 240.814 186.503 241.225 186.896C241.643 187.29 241.965 187.754 242.191 188.29C242.426 188.826 242.543 189.411 242.543 190.048C242.543 190.684 242.43 191.27 242.204 191.805C241.978 192.341 241.656 192.805 241.237 193.199C240.827 193.592 240.337 193.898 239.768 194.115C239.207 194.333 238.592 194.442 237.923 194.442H235.023ZM245.744 194.555C245.283 194.555 244.877 194.475 244.526 194.316C244.183 194.157 243.911 193.935 243.71 193.651C243.517 193.366 243.421 193.036 243.421 192.659C243.421 192.065 243.647 191.596 244.099 191.253C244.551 190.91 245.162 190.738 245.932 190.738C246.61 190.738 247.225 190.88 247.778 191.165V190.336C247.778 189.834 247.635 189.457 247.351 189.206C247.066 188.947 246.652 188.817 246.108 188.817C245.798 188.817 245.484 188.863 245.166 188.955C244.857 189.039 244.513 189.177 244.137 189.37L243.785 188.654C244.237 188.436 244.656 188.277 245.041 188.177C245.426 188.076 245.811 188.026 246.196 188.026C246.991 188.026 247.602 188.215 248.029 188.591C248.464 188.968 248.682 189.508 248.682 190.211V194.442H247.778V193.826C247.493 194.069 247.179 194.253 246.836 194.379C246.501 194.496 246.137 194.555 245.744 194.555ZM244.313 192.634C244.313 192.985 244.459 193.274 244.752 193.5C245.053 193.718 245.438 193.826 245.907 193.826C246.284 193.826 246.627 193.768 246.936 193.651C247.246 193.534 247.527 193.349 247.778 193.098V191.918C247.518 191.742 247.242 191.617 246.949 191.542C246.656 191.458 246.325 191.416 245.957 191.416C245.455 191.416 245.053 191.529 244.752 191.755C244.459 191.973 244.313 192.266 244.313 192.634ZM252.523 194.567C251.979 194.567 251.56 194.437 251.268 194.178C250.975 193.919 250.828 193.542 250.828 193.048V188.943H249.472V188.152H250.828V186.557L251.745 186.319V188.152H253.64V188.943H251.745V192.81C251.745 193.144 251.82 193.387 251.971 193.538C252.121 193.68 252.368 193.751 252.711 193.751C252.887 193.751 253.042 193.739 253.176 193.713C253.318 193.688 253.469 193.647 253.628 193.588V194.404C253.469 194.463 253.289 194.504 253.088 194.53C252.895 194.555 252.707 194.567 252.523 194.567ZM257.463 194.555C256.86 194.555 256.312 194.412 255.818 194.128C255.333 193.835 254.944 193.441 254.651 192.948C254.366 192.454 254.224 191.901 254.224 191.29C254.224 190.688 254.362 190.144 254.638 189.658C254.914 189.165 255.287 188.775 255.755 188.491C256.224 188.198 256.747 188.051 257.325 188.051C257.886 188.051 258.388 188.198 258.831 188.491C259.283 188.775 259.639 189.165 259.898 189.658C260.166 190.144 260.3 190.688 260.3 191.29V191.579H255.14C255.19 191.989 255.32 192.358 255.529 192.684C255.747 193.01 256.027 193.27 256.371 193.462C256.714 193.647 257.09 193.739 257.501 193.739C257.827 193.739 258.145 193.688 258.455 193.588C258.764 193.487 259.024 193.345 259.233 193.161L259.811 193.776C259.459 194.036 259.091 194.232 258.706 194.366C258.329 194.492 257.915 194.555 257.463 194.555ZM255.165 190.838H259.371C259.321 190.462 259.195 190.127 258.995 189.834C258.802 189.533 258.559 189.298 258.266 189.131C257.973 188.955 257.651 188.867 257.3 188.867C256.94 188.867 256.609 188.951 256.308 189.118C256.006 189.286 255.755 189.52 255.555 189.822C255.354 190.114 255.224 190.453 255.165 190.838Z" fill="#999999"/>
<path d="M55.7455 220.29C54.8553 220.29 54.0788 220.058 53.4161 219.593C52.7632 219.128 52.2835 218.475 51.9768 217.634L53.0155 217.204C53.2825 217.887 53.6436 218.396 54.0986 218.732C54.5635 219.069 55.1174 219.237 55.7604 219.237C56.611 219.237 57.2886 218.965 57.7931 218.421C58.2975 217.867 58.5498 217.125 58.5498 216.195V209.741H59.6923V216.21C59.6923 217.041 59.529 217.763 59.2026 218.376C58.8861 218.989 58.4311 219.464 57.8376 219.801C57.254 220.127 56.5566 220.29 55.7455 220.29ZM65.0131 220.275C64.3108 220.275 63.6678 220.107 63.0842 219.771C62.5105 219.425 62.0555 218.96 61.7192 218.376C61.3829 217.793 61.2147 217.14 61.2147 216.418C61.2147 215.696 61.3829 215.043 61.7192 214.459C62.0555 213.876 62.5105 213.416 63.0842 213.079C63.6678 212.733 64.3108 212.56 65.0131 212.56C65.7253 212.56 66.3682 212.733 66.9419 213.079C67.5156 213.416 67.9706 213.876 68.307 214.459C68.6433 215.043 68.8114 215.696 68.8114 216.418C68.8114 217.14 68.6433 217.793 68.307 218.376C67.9706 218.96 67.5156 219.425 66.9419 219.771C66.3682 220.107 65.7253 220.275 65.0131 220.275ZM65.0131 219.296C65.5175 219.296 65.9725 219.168 66.3781 218.91C66.7935 218.653 67.12 218.307 67.3574 217.872C67.6047 217.436 67.7283 216.952 67.7283 216.418C67.7283 215.874 67.6047 215.389 67.3574 214.964C67.12 214.528 66.7935 214.182 66.3781 213.925C65.9725 213.668 65.5175 213.539 65.0131 213.539C64.5086 213.539 64.0486 213.668 63.6332 213.925C63.2276 214.182 62.9012 214.528 62.6539 214.964C62.4165 215.389 62.2978 215.874 62.2978 216.418C62.2978 216.952 62.4165 217.436 62.6539 217.872C62.9012 218.307 63.2276 218.653 63.6332 218.91C64.0486 219.168 64.5086 219.296 65.0131 219.296ZM70.3367 220.127V209.741L71.4346 209.489V213.569C72.0182 212.886 72.7997 212.545 73.7789 212.545C74.3427 212.545 74.8373 212.669 75.2626 212.916C75.6979 213.153 76.0342 213.49 76.2716 213.925C76.5189 214.35 76.6425 214.85 76.6425 215.424V220.127H75.5594V215.646C75.5594 214.983 75.3715 214.464 74.9956 214.088C74.6296 213.702 74.1251 213.51 73.4822 213.51C73.037 213.51 72.6414 213.608 72.2952 213.806C71.949 214.004 71.6621 214.286 71.4346 214.652V220.127H70.3367ZM78.4798 220.127V212.693H79.5778V213.569C80.1614 212.886 80.9428 212.545 81.9221 212.545C82.4859 212.545 82.9805 212.669 83.4058 212.916C83.841 213.153 84.1773 213.49 84.4147 213.925C84.662 214.35 84.7857 214.85 84.7857 215.424V220.127H83.7025V215.646C83.7025 214.983 83.5146 214.464 83.1387 214.088C82.7727 213.702 82.2683 213.51 81.6253 213.51C81.1802 213.51 80.7845 213.608 80.4383 213.806C80.0921 214.004 79.8053 214.286 79.5778 214.652V220.127H78.4798ZM90.0184 220.127V209.741H91.1608V214.385H97.1996V209.741H98.3421V220.127H97.1996V215.409H91.1608V220.127H90.0184ZM103.904 220.261C103.192 220.261 102.544 220.092 101.96 219.756C101.386 219.41 100.926 218.945 100.58 218.361C100.244 217.778 100.076 217.125 100.076 216.403C100.076 215.691 100.239 215.048 100.565 214.474C100.892 213.89 101.332 213.43 101.886 213.094C102.44 212.748 103.058 212.575 103.741 212.575C104.403 212.575 104.997 212.748 105.521 213.094C106.055 213.43 106.476 213.89 106.782 214.474C107.099 215.048 107.257 215.691 107.257 216.403V216.744H101.159C101.218 217.229 101.372 217.664 101.619 218.05C101.876 218.436 102.207 218.742 102.613 218.97C103.019 219.187 103.464 219.296 103.948 219.296C104.334 219.296 104.71 219.237 105.076 219.118C105.442 218.999 105.749 218.831 105.996 218.614L106.678 219.341C106.263 219.647 105.828 219.88 105.373 220.038C104.928 220.186 104.438 220.261 103.904 220.261ZM101.189 215.869H106.159C106.1 215.424 105.951 215.028 105.714 214.682C105.486 214.326 105.2 214.049 104.853 213.851C104.507 213.643 104.126 213.539 103.711 213.539C103.286 213.539 102.895 213.638 102.539 213.836C102.183 214.034 101.886 214.311 101.649 214.667C101.411 215.013 101.258 215.414 101.189 215.869ZM108.792 220.127V212.693H109.89V213.569C110.474 212.886 111.255 212.545 112.234 212.545C112.798 212.545 113.293 212.669 113.718 212.916C114.153 213.153 114.49 213.49 114.727 213.925C114.974 214.35 115.098 214.85 115.098 215.424V220.127H114.015V215.646C114.015 214.983 113.827 214.464 113.451 214.088C113.085 213.702 112.58 213.51 111.938 213.51C111.492 213.51 111.097 213.608 110.751 213.806C110.404 214.004 110.117 214.286 109.89 214.652V220.127H108.792ZM116.935 220.127V212.693H118.033V213.747C118.261 213.361 118.547 213.064 118.894 212.857C119.25 212.639 119.655 212.53 120.11 212.53C120.368 212.53 120.6 212.565 120.808 212.634V213.643C120.679 213.594 120.551 213.559 120.422 213.539C120.293 213.519 120.165 213.51 120.036 213.51C119.581 213.51 119.181 213.643 118.834 213.91C118.498 214.167 118.231 214.543 118.033 215.038V220.127H116.935ZM122.521 223.302C122.382 223.302 122.249 223.292 122.12 223.272C122.002 223.263 121.903 223.248 121.824 223.228V222.234C121.992 222.273 122.199 222.293 122.447 222.293C123.1 222.293 123.594 221.907 123.93 221.136L124.376 220.112L121.349 212.693H122.565L124.969 218.792L127.566 212.693H128.753L125.043 221.284C124.836 221.759 124.613 222.145 124.376 222.442C124.138 222.738 123.866 222.956 123.56 223.094C123.263 223.233 122.917 223.302 122.521 223.302Z" fill="white"/>
<path d="M201.585 220.29C200.754 220.29 200.022 220.063 199.389 219.608C198.756 219.153 198.256 218.525 197.89 217.723C197.534 216.912 197.356 215.982 197.356 214.934C197.356 213.885 197.534 212.961 197.89 212.159C198.256 211.348 198.756 210.715 199.389 210.26C200.022 209.805 200.754 209.578 201.585 209.578C202.416 209.578 203.148 209.805 203.781 210.26C204.414 210.715 204.909 211.348 205.265 212.159C205.631 212.961 205.814 213.885 205.814 214.934C205.814 215.982 205.631 216.912 205.265 217.723C204.909 218.525 204.414 219.153 203.781 219.608C203.148 220.063 202.416 220.29 201.585 220.29ZM201.585 219.326C202.228 219.326 202.782 219.148 203.247 218.792C203.722 218.426 204.088 217.911 204.345 217.249C204.602 216.586 204.731 215.814 204.731 214.934C204.731 214.044 204.602 213.272 204.345 212.619C204.088 211.957 203.722 211.447 203.247 211.091C202.782 210.725 202.228 210.542 201.585 210.542C200.952 210.542 200.398 210.725 199.923 211.091C199.448 211.447 199.082 211.957 198.825 212.619C198.568 213.272 198.439 214.044 198.439 214.934C198.439 215.814 198.568 216.586 198.825 217.249C199.082 217.911 199.448 218.426 199.923 218.792C200.398 219.148 200.952 219.326 201.585 219.326ZM210.608 220.29C209.243 220.29 208.066 219.82 207.076 218.881L207.744 218.154C208.199 218.579 208.649 218.891 209.094 219.088C209.549 219.276 210.059 219.37 210.623 219.37C211.127 219.37 211.572 219.266 211.958 219.059C212.344 218.851 212.64 218.559 212.848 218.183C213.066 217.807 213.175 217.377 213.175 216.892C213.175 216.2 212.937 215.641 212.462 215.216C211.997 214.79 211.384 214.578 210.623 214.578C210.227 214.578 209.841 214.627 209.465 214.726C209.089 214.815 208.699 214.964 208.293 215.171L207.551 214.934L207.789 209.741H213.694V210.676H208.709L208.545 214.266C208.941 214.068 209.322 213.93 209.688 213.851C210.054 213.762 210.44 213.717 210.845 213.717C211.528 213.717 212.121 213.851 212.626 214.118C213.14 214.375 213.536 214.741 213.813 215.216C214.099 215.681 214.243 216.225 214.243 216.848C214.243 217.53 214.09 218.129 213.783 218.643C213.476 219.158 213.051 219.563 212.507 219.86C211.963 220.147 211.33 220.29 210.608 220.29ZM213.719 223.154L219.966 209.741H221.079L214.817 223.154H213.719ZM221.845 220.127V219.341L225.999 214.8C226.326 214.444 226.578 214.133 226.756 213.866C226.944 213.589 227.072 213.331 227.142 213.094C227.221 212.857 227.26 212.604 227.26 212.337C227.26 211.813 227.053 211.383 226.637 211.047C226.232 210.7 225.712 210.527 225.079 210.527C224.595 210.527 224.145 210.621 223.729 210.809C223.314 210.997 222.849 211.323 222.334 211.788L221.711 211.047C222.255 210.552 222.804 210.186 223.358 209.949C223.912 209.701 224.491 209.578 225.094 209.578C225.717 209.578 226.271 209.696 226.756 209.934C227.241 210.161 227.621 210.478 227.898 210.883C228.175 211.289 228.314 211.754 228.314 212.278C228.314 212.624 228.269 212.946 228.18 213.242C228.091 213.529 227.933 213.841 227.706 214.177C227.478 214.504 227.152 214.899 226.726 215.364L223.18 219.207L228.536 219.192V220.127H221.845ZM233.373 220.29C232.661 220.29 231.993 220.167 231.37 219.919C230.757 219.672 230.213 219.306 229.738 218.821L230.45 218.124C230.886 218.559 231.331 218.876 231.786 219.074C232.251 219.261 232.775 219.355 233.358 219.355C233.863 219.355 234.308 219.266 234.694 219.088C235.089 218.91 235.396 218.663 235.614 218.347C235.831 218.03 235.94 217.669 235.94 217.263C235.94 216.878 235.841 216.536 235.643 216.24C235.455 215.933 235.193 215.696 234.857 215.527C234.521 215.359 234.135 215.275 233.7 215.275H232.468V214.355H233.655C234.219 214.355 234.674 214.182 235.02 213.836C235.376 213.49 235.554 213.04 235.554 212.486C235.554 212.12 235.455 211.788 235.258 211.492C235.06 211.195 234.788 210.962 234.442 210.794C234.105 210.616 233.724 210.527 233.299 210.527C232.765 210.527 232.285 210.626 231.86 210.824C231.444 211.012 231.019 211.333 230.584 211.788L229.872 211.076C230.337 210.582 230.861 210.211 231.444 209.963C232.028 209.706 232.651 209.578 233.314 209.578C233.947 209.578 234.511 209.701 235.005 209.949C235.51 210.196 235.906 210.537 236.192 210.972C236.479 211.398 236.623 211.882 236.623 212.426C236.623 212.97 236.445 213.46 236.089 213.895C235.732 214.321 235.263 214.617 234.679 214.786C235.381 214.944 235.945 215.25 236.37 215.705C236.796 216.16 237.008 216.69 237.008 217.293C237.008 217.867 236.85 218.381 236.534 218.836C236.227 219.291 235.797 219.647 235.243 219.904C234.699 220.162 234.076 220.29 233.373 220.29Z" fill="white"/>
</g>
<defs>
<filter id="filter0_dd_1763_17057" x="-13.375" y="0.958984" width="456.619" height="310.528" filterUnits="userSpaceOnUse" color-interpolation-filters="sRGB">
<feFlood flood-opacity="0" result="BackgroundImageFix"/>
<feColorMatrix in="SourceAlpha" type="matrix" values="0 0 0 0 0 0 0 0 0 0 0 0 0 0 0 0 0 0 127 0" result="hardAlpha"/>
<feOffset dy="24"/>
<feGaussianBlur stdDeviation="16"/>
<feColorMatrix type="matrix" values="0 0 0 0 0.196487 0 0 0 0 0.196487 0 0 0 0 0.279476 0 0 0 0.08 0"/>
<feBlend mode="multiply" in2="BackgroundImageFix" result="effect1_dropShadow_1763_17057"/>
<feColorMatrix in="SourceAlpha" type="matrix" values="0 0 0 0 0 0 0 0 0 0 0 0 0 0 0 0 0 0 127 0" result="hardAlpha"/>
<feOffset dy="16"/>
<feGaussianBlur stdDeviation="8"/>
<feColorMatrix type="matrix" values="0 0 0 0 0.196487 0 0 0 0 0.196487 0 0 0 0 0.279476 0 0 0 0.08 0"/>
<feBlend mode="multiply" in2="effect1_dropShadow_1763_17057" result="effect2_dropShadow_1763_17057"/>
<feBlend mode="normal" in="SourceGraphic" in2="effect2_dropShadow_1763_17057" result="shape"/>
</filter>
</defs>
</svg>
