<svg width="47" height="19" viewBox="0 0 47 19" fill="none" xmlns="http://www.w3.org/2000/svg">
<path d="M23.4424 0.320386C15.0362 0.340449 7.01124 2.14607 2.93855 6.21876C1.0928 8.06451 0.149865 10.2914 0.230115 12.9798C0.290302 14.4845 0.711615 16.0093 1.67461 16.9723C2.33668 17.6544 3.27961 18.0356 4.44324 17.8349L11.8463 16.571C12.8294 16.3904 13.5717 16.0694 14.0933 15.5679C14.7353 14.966 14.9761 14.003 14.9761 12.6989L15.0162 10.6726C15.0162 10.3516 15.1366 10.1109 15.3372 9.91026C15.5177 9.68957 15.7986 9.58926 16.0193 9.52907C17.3033 9.18801 20.0519 8.82689 23.4424 8.82689C26.833 8.82689 29.5615 9.10776 30.8656 9.54914C31.0862 9.60932 31.327 9.7297 31.5076 9.91026C31.7082 10.0908 31.8085 10.3115 31.8085 10.6124L31.8687 12.6989C31.9088 14.003 32.1696 14.9459 32.7916 15.5679C33.3132 16.0895 34.0555 16.3904 35.0586 16.571L42.241 17.7948C43.4648 18.0155 44.4679 17.5942 45.2303 16.8519C46.1131 15.9491 46.6347 14.5447 46.6547 12.8996C46.6949 10.2112 45.6717 8.00432 43.8661 6.21876C39.7934 2.14607 31.8486 0.300324 23.4424 0.320386Z" fill="white"/>
</svg>
