<svg width="157" height="32" viewBox="0 0 157 32" fill="none" xmlns="http://www.w3.org/2000/svg">
<path d="M3.07214 25C2.36947 25 1.82547 24.8073 1.44014 24.422C1.05481 24.014 0.862141 23.4587 0.862141 22.756V3.138C0.862141 2.41267 1.04347 1.86867 1.40614 1.506C1.79147 1.12067 2.33547 0.928 3.03814 0.928C3.74081 0.928 4.27347 1.12067 4.63614 1.506C5.02147 1.86867 5.21414 2.41267 5.21414 3.138V21.294H15.0741C15.6861 21.294 16.1508 21.4527 16.4681 21.77C16.8081 22.0873 16.9781 22.5407 16.9781 23.13C16.9781 23.7193 16.8081 24.184 16.4681 24.524C16.1508 24.8413 15.6861 25 15.0741 25H3.07214ZM21.6539 25.238C20.9739 25.238 20.4526 25.034 20.0899 24.626C19.7273 24.218 19.5459 23.6513 19.5459 22.926V10.448C19.5459 9.7 19.7273 9.13333 20.0899 8.748C20.4526 8.34 20.9739 8.136 21.6539 8.136C22.3339 8.136 22.8553 8.34 23.2179 8.748C23.6033 9.13333 23.7959 9.7 23.7959 10.448V22.926C23.7959 23.6513 23.6146 24.218 23.2519 24.626C22.8893 25.034 22.3566 25.238 21.6539 25.238ZM21.6539 4.974C20.8606 4.974 20.2373 4.78133 19.7839 4.396C19.3533 3.988 19.1379 3.43267 19.1379 2.73C19.1379 2.00467 19.3533 1.44933 19.7839 1.064C20.2373 0.678666 20.8606 0.485999 21.6539 0.485999C22.4699 0.485999 23.0933 0.678666 23.5239 1.064C23.9546 1.44933 24.1699 2.00467 24.1699 2.73C24.1699 3.43267 23.9546 3.988 23.5239 4.396C23.0933 4.78133 22.4699 4.974 21.6539 4.974ZM30.388 25.272C29.708 25.272 29.1866 25.0907 28.824 24.728C28.4613 24.3427 28.28 23.7987 28.28 23.096V10.244C28.28 9.54133 28.4613 9.00867 28.824 8.646C29.1866 8.28333 29.6966 8.102 30.354 8.102C31.0113 8.102 31.5213 8.28333 31.884 8.646C32.2466 9.00867 32.428 9.54133 32.428 10.244V12.726L32.054 11.706C32.5073 10.5727 33.21 9.67733 34.162 9.02C35.114 8.36267 36.2473 8.034 37.562 8.034C38.8993 8.034 39.9986 8.35133 40.86 8.986C41.7213 9.62067 42.322 10.5953 42.662 11.91H42.186C42.6393 10.7087 43.3873 9.768 44.43 9.088C45.4726 8.38533 46.674 8.034 48.034 8.034C49.3033 8.034 50.346 8.28333 51.162 8.782C52.0006 9.28067 52.624 10.04 53.032 11.06C53.44 12.0573 53.644 13.3267 53.644 14.868V23.096C53.644 23.7987 53.4513 24.3427 53.066 24.728C52.7033 25.0907 52.182 25.272 51.502 25.272C50.822 25.272 50.3006 25.0907 49.938 24.728C49.5753 24.3427 49.394 23.7987 49.394 23.096V15.038C49.394 13.7687 49.1786 12.8393 48.748 12.25C48.34 11.6607 47.6373 11.366 46.64 11.366C45.5293 11.366 44.6566 11.7627 44.022 12.556C43.3873 13.3267 43.07 14.4033 43.07 15.786V23.096C43.07 23.7987 42.8886 24.3427 42.526 24.728C42.1633 25.0907 41.642 25.272 40.962 25.272C40.282 25.272 39.7493 25.0907 39.364 24.728C39.0013 24.3427 38.82 23.7987 38.82 23.096V15.038C38.82 13.7687 38.6046 12.8393 38.174 12.25C37.766 11.6607 37.0746 11.366 36.1 11.366C34.9893 11.366 34.1166 11.7627 33.482 12.556C32.8473 13.3267 32.53 14.4033 32.53 15.786V23.096C32.53 24.5467 31.816 25.272 30.388 25.272ZM60.1364 31.392C59.4564 31.392 58.935 31.2107 58.5724 30.848C58.2097 30.4853 58.0284 29.9527 58.0284 29.25V10.244C58.0284 9.54133 58.2097 9.00867 58.5724 8.646C58.935 8.28333 59.445 8.102 60.1024 8.102C60.7824 8.102 61.3037 8.28333 61.6664 8.646C62.029 9.00867 62.2104 9.54133 62.2104 10.244V12.896L61.8364 11.876C62.1764 10.72 62.8677 9.79067 63.9104 9.088C64.9757 8.38533 66.211 8.034 67.6164 8.034C69.067 8.034 70.3364 8.38533 71.4244 9.088C72.535 9.79067 73.3964 10.788 74.0084 12.08C74.6204 13.3493 74.9264 14.8793 74.9264 16.67C74.9264 18.438 74.6204 19.9793 74.0084 21.294C73.3964 22.586 72.5464 23.5833 71.4584 24.286C70.3704 24.9887 69.0897 25.34 67.6164 25.34C66.2337 25.34 65.021 25 63.9784 24.32C62.9357 23.6173 62.233 22.7107 61.8704 21.6H62.2784V29.25C62.2784 29.9527 62.0857 30.4853 61.7004 30.848C61.3377 31.2107 60.8164 31.392 60.1364 31.392ZM66.4264 22.11C67.265 22.11 68.0017 21.906 68.6364 21.498C69.271 21.09 69.7584 20.4893 70.0984 19.696C70.461 18.88 70.6424 17.8713 70.6424 16.67C70.6424 14.8567 70.257 13.508 69.4864 12.624C68.7157 11.7173 67.6957 11.264 66.4264 11.264C65.5877 11.264 64.851 11.468 64.2164 11.876C63.5817 12.2613 63.083 12.862 62.7204 13.678C62.3804 14.4713 62.2104 15.4687 62.2104 16.67C62.2104 18.4607 62.5957 19.8207 63.3664 20.75C64.137 21.6567 65.157 22.11 66.4264 22.11ZM80.5231 25.238C79.8431 25.238 79.3217 25.034 78.9591 24.626C78.5964 24.218 78.4151 23.6513 78.4151 22.926V10.448C78.4151 9.7 78.5964 9.13333 78.9591 8.748C79.3217 8.34 79.8431 8.136 80.5231 8.136C81.2031 8.136 81.7244 8.34 82.0871 8.748C82.4724 9.13333 82.6651 9.7 82.6651 10.448V22.926C82.6651 23.6513 82.4837 24.218 82.1211 24.626C81.7584 25.034 81.2257 25.238 80.5231 25.238ZM80.5231 4.974C79.7297 4.974 79.1064 4.78133 78.6531 4.396C78.2224 3.988 78.0071 3.43267 78.0071 2.73C78.0071 2.00467 78.2224 1.44933 78.6531 1.064C79.1064 0.678666 79.7297 0.485999 80.5231 0.485999C81.3391 0.485999 81.9624 0.678666 82.3931 1.064C82.8237 1.44933 83.0391 2.00467 83.0391 2.73C83.0391 3.43267 82.8237 3.988 82.3931 4.396C81.9624 4.78133 81.3391 4.974 80.5231 4.974ZM92.5551 25.34C91.3538 25.34 90.2771 25.1133 89.3251 24.66C88.3958 24.184 87.6591 23.5493 87.1151 22.756C86.5938 21.9627 86.3331 21.0673 86.3331 20.07C86.3331 18.846 86.6504 17.8827 87.2851 17.18C87.9198 16.4547 88.9511 15.9333 90.3791 15.616C91.8071 15.2987 93.7224 15.14 96.1251 15.14H97.8251V17.588H96.1591C94.7538 17.588 93.6318 17.656 92.7931 17.792C91.9544 17.928 91.3538 18.166 90.9911 18.506C90.6511 18.8233 90.4811 19.2767 90.4811 19.866C90.4811 20.614 90.7418 21.226 91.2631 21.702C91.7844 22.178 92.5098 22.416 93.4391 22.416C94.1871 22.416 94.8444 22.246 95.4111 21.906C96.0004 21.5433 96.4651 21.056 96.8051 20.444C97.1451 19.832 97.3151 19.1293 97.3151 18.336V14.426C97.3151 13.2927 97.0658 12.4767 96.5671 11.978C96.0684 11.4793 95.2298 11.23 94.0511 11.23C93.3938 11.23 92.6798 11.3093 91.9091 11.468C91.1611 11.6267 90.3678 11.8987 89.5291 12.284C89.0984 12.488 88.7131 12.5447 88.3731 12.454C88.0558 12.3633 87.8064 12.182 87.6251 11.91C87.4438 11.6153 87.3531 11.298 87.3531 10.958C87.3531 10.618 87.4438 10.2893 87.6251 9.972C87.8064 9.632 88.1124 9.38267 88.5431 9.224C89.5858 8.79333 90.5831 8.48733 91.5351 8.306C92.5098 8.12467 93.3938 8.034 94.1871 8.034C95.8191 8.034 97.1564 8.28333 98.1991 8.782C99.2644 9.28067 100.058 10.04 100.579 11.06C101.1 12.0573 101.361 13.3493 101.361 14.936V23.096C101.361 23.7987 101.191 24.3427 100.851 24.728C100.511 25.0907 100.024 25.272 99.3891 25.272C98.7544 25.272 98.2558 25.0907 97.8931 24.728C97.5531 24.3427 97.3831 23.7987 97.3831 23.096V21.464H97.6551C97.4964 22.2573 97.1791 22.9487 96.7031 23.538C96.2498 24.1047 95.6718 24.5467 94.9691 24.864C94.2664 25.1813 93.4618 25.34 92.5551 25.34ZM112.067 25.34C110.616 25.34 109.336 24.9887 108.225 24.286C107.137 23.5833 106.287 22.586 105.675 21.294C105.063 19.9793 104.757 18.438 104.757 16.67C104.757 14.8793 105.063 13.3493 105.675 12.08C106.287 10.788 107.137 9.79067 108.225 9.088C109.336 8.38533 110.616 8.034 112.067 8.034C113.45 8.034 114.651 8.374 115.671 9.054C116.714 9.734 117.416 10.6293 117.779 11.74H117.405V2.9C117.405 2.19733 117.586 1.66467 117.949 1.302C118.312 0.939332 118.833 0.757998 119.513 0.757998C120.193 0.757998 120.714 0.939332 121.077 1.302C121.462 1.66467 121.655 2.19733 121.655 2.9V23.096C121.655 23.7987 121.474 24.3427 121.111 24.728C120.748 25.0907 120.227 25.272 119.547 25.272C118.867 25.272 118.346 25.0907 117.983 24.728C117.62 24.3427 117.439 23.7987 117.439 23.096V20.444L117.813 21.464C117.473 22.6427 116.782 23.5833 115.739 24.286C114.696 24.9887 113.472 25.34 112.067 25.34ZM113.257 22.11C114.096 22.11 114.832 21.906 115.467 21.498C116.102 21.09 116.589 20.4893 116.929 19.696C117.292 18.88 117.473 17.8713 117.473 16.67C117.473 14.8567 117.088 13.508 116.317 12.624C115.546 11.7173 114.526 11.264 113.257 11.264C112.418 11.264 111.682 11.468 111.047 11.876C110.412 12.2613 109.914 12.862 109.551 13.678C109.211 14.4713 109.041 15.4687 109.041 16.67C109.041 18.4607 109.426 19.8207 110.197 20.75C110.968 21.6567 111.988 22.11 113.257 22.11ZM133.644 25.34C131.921 25.34 130.425 24.9887 129.156 24.286C127.886 23.5833 126.9 22.586 126.198 21.294C125.495 19.9793 125.144 18.438 125.144 16.67C125.144 15.3327 125.336 14.1427 125.722 13.1C126.13 12.0347 126.708 11.128 127.456 10.38C128.204 9.60933 129.099 9.03133 130.142 8.646C131.184 8.238 132.352 8.034 133.644 8.034C135.366 8.034 136.862 8.38533 138.132 9.088C139.401 9.79067 140.387 10.788 141.09 12.08C141.792 13.372 142.144 14.902 142.144 16.67C142.144 18.0073 141.94 19.2087 141.532 20.274C141.146 21.3393 140.58 22.2573 139.832 23.028C139.084 23.776 138.188 24.354 137.146 24.762C136.103 25.1473 134.936 25.34 133.644 25.34ZM133.644 22.11C134.482 22.11 135.219 21.906 135.854 21.498C136.488 21.09 136.976 20.4893 137.316 19.696C137.678 18.88 137.86 17.8713 137.86 16.67C137.86 14.8567 137.474 13.508 136.704 12.624C135.933 11.7173 134.913 11.264 133.644 11.264C132.805 11.264 132.068 11.468 131.434 11.876C130.799 12.2613 130.3 12.862 129.938 13.678C129.598 14.4713 129.428 15.4687 129.428 16.67C129.428 18.4607 129.813 19.8207 130.584 20.75C131.354 21.6567 132.374 22.11 133.644 22.11ZM147.827 25.272C147.125 25.272 146.581 25.0907 146.195 24.728C145.833 24.3427 145.651 23.7987 145.651 23.096V10.244C145.651 9.54133 145.833 9.00867 146.195 8.646C146.558 8.28333 147.068 8.102 147.725 8.102C148.383 8.102 148.893 8.28333 149.255 8.646C149.618 9.00867 149.799 9.54133 149.799 10.244V12.386H149.459C149.777 11.026 150.4 9.99467 151.329 9.292C152.259 8.58933 153.494 8.17 155.035 8.034C155.511 7.98867 155.885 8.11333 156.157 8.408C156.452 8.68 156.622 9.11067 156.667 9.7C156.713 10.2667 156.577 10.7313 156.259 11.094C155.965 11.434 155.511 11.638 154.899 11.706L154.151 11.774C152.769 11.91 151.726 12.3407 151.023 13.066C150.321 13.7687 149.969 14.766 149.969 16.058V23.096C149.969 23.7987 149.788 24.3427 149.425 24.728C149.063 25.0907 148.53 25.272 147.827 25.272Z" fill="white"/>
</svg>
