<svg width="87" height="40" viewBox="0 0 87 40" fill="none" xmlns="http://www.w3.org/2000/svg">
<path d="M3.22722 17C3.05322 16.9933 2.88591 16.9565 2.72529 16.8896C2.57137 16.816 2.43752 16.7189 2.32375 16.5985C2.07613 16.3508 1.95232 16.0463 1.95232 15.6849V5.03398C1.95232 4.6659 2.08282 4.35136 2.34383 4.09036C2.46429 3.97658 2.60483 3.88624 2.76545 3.81931C2.93276 3.75239 3.10676 3.71893 3.28746 3.71893C3.65554 3.71893 3.97008 3.84274 4.23108 4.09036C4.49209 4.35136 4.62259 4.6659 4.62259 5.03398V14.3398L9.18012 14.3498C9.5482 14.3498 9.86274 14.4803 10.1237 14.7413C10.3781 14.9956 10.5052 15.3102 10.5052 15.6849C10.5052 16.0731 10.3781 16.3876 10.1237 16.6286C9.87613 16.8762 9.56158 17 9.18012 17H3.22722ZM13.9083 17.1104C13.7276 17.1104 13.5536 17.077 13.3863 17.01C13.2257 16.9431 13.0851 16.8494 12.9647 16.729C12.8442 16.6085 12.7472 16.468 12.6736 16.3073C12.6066 16.1467 12.5732 15.9761 12.5732 15.7954V5.03398C12.5732 4.6659 12.7037 4.35136 12.9647 4.09036C13.0851 3.97658 13.2257 3.88624 13.3863 3.81931C13.5536 3.75239 13.7276 3.71893 13.9083 3.71893C14.2764 3.71893 14.5909 3.84274 14.8519 4.09036C15.1129 4.35136 15.2434 4.6659 15.2434 5.03398V15.7954C15.2434 15.9761 15.2066 16.1467 15.133 16.3073C15.0661 16.468 14.9724 16.6085 14.8519 16.729C14.5976 16.9833 14.2831 17.1104 13.9083 17.1104ZM19.0882 17C18.7134 17 18.3889 16.8695 18.1145 16.6085C17.8468 16.3542 17.7129 16.0329 17.7129 15.6448V7.85483C17.7129 7.29936 17.8167 6.77066 18.0241 6.26873C18.2383 5.76011 18.5361 5.31506 18.9176 4.9336C19.299 4.55213 19.7374 4.25432 20.2326 4.04016C20.7346 3.82601 21.2699 3.71893 21.8388 3.71893C22.3675 3.71893 22.8661 3.81597 23.3345 4.01005C23.8097 4.19743 24.2347 4.46513 24.6095 4.81313C24.9842 4.46513 25.4058 4.19743 25.8743 4.01005C26.3428 3.81597 26.8414 3.71893 27.3701 3.71893C27.9389 3.71893 28.4743 3.82601 28.9762 4.04016C29.4849 4.25432 29.9299 4.55213 30.3114 4.9336C30.6928 5.31506 30.9907 5.76011 31.2048 6.26873C31.419 6.77066 31.5261 7.29936 31.5261 7.85483V15.6448C31.5261 16.0196 31.3922 16.3408 31.1245 16.6085C30.9974 16.729 30.8468 16.826 30.6728 16.8996C30.5055 16.9665 30.3315 17 30.1508 17C29.9567 17 29.776 16.9665 29.6087 16.8996C29.4414 16.826 29.2975 16.729 29.177 16.6085C28.9026 16.3475 28.7654 16.0263 28.7654 15.6448V7.95522C28.7654 7.77452 28.7253 7.60052 28.645 7.43321C28.5714 7.25921 28.471 7.10863 28.3438 6.98147C28.2167 6.85432 28.0661 6.75728 27.8921 6.69035C27.7181 6.61674 27.5374 6.57993 27.35 6.57993C26.9618 6.57993 26.6439 6.71043 26.3963 6.97143C26.142 7.23913 26.0082 7.56037 25.9948 7.93514V15.6247C25.9948 16.0062 25.8609 16.3308 25.5932 16.5985C25.4661 16.7256 25.3188 16.826 25.1515 16.8996C24.9842 16.9665 24.8069 17 24.6195 17C24.238 17 23.9134 16.8662 23.6457 16.5985C23.3781 16.3308 23.2442 16.0062 23.2442 15.6247V7.97529C23.2442 7.78122 23.2074 7.60052 23.1338 7.43321C23.0669 7.25921 22.9732 7.10863 22.8527 6.98147C22.7255 6.85432 22.575 6.75728 22.401 6.69035C22.2336 6.61674 22.053 6.57993 21.8589 6.57993C21.4707 6.57993 21.1428 6.71378 20.8751 6.98147C20.7479 7.10863 20.6476 7.25921 20.5739 7.43321C20.5003 7.60052 20.4635 7.77452 20.4635 7.95522V15.6448C20.4635 16.0329 20.3297 16.3542 20.062 16.6085C19.9348 16.729 19.7842 16.826 19.6102 16.8996C19.4429 16.9665 19.2689 17 19.0882 17ZM35.3307 17.1205C35.15 17.1205 34.976 17.087 34.8087 17.0201C34.6481 16.9532 34.5075 16.8595 34.3871 16.739C34.2666 16.6185 34.1695 16.478 34.0959 16.3174C34.029 16.1568 33.9955 15.9861 33.9955 15.8054V5.07414C33.9955 4.89344 34.029 4.72279 34.0959 4.56217C34.1695 4.39486 34.2666 4.25097 34.3871 4.13051C34.5075 4.01005 34.6481 3.91635 34.8087 3.84943C34.976 3.77581 35.15 3.739 35.3307 3.739H39.0952C39.7711 3.739 40.4136 3.86951 41.0226 4.13051C41.6383 4.38482 42.177 4.73952 42.6388 5.1946C43.1073 5.65638 43.4686 6.19512 43.723 6.81082C43.9773 7.41983 44.1044 8.09241 44.1044 8.82858C44.1044 9.49782 43.9739 10.1369 43.7129 10.7459C43.4586 11.3483 43.1006 11.877 42.6388 12.332C42.177 12.7871 41.6383 13.1418 41.0226 13.3961C40.4136 13.6505 39.7711 13.7776 39.0952 13.7776H36.6658V15.8054C36.6658 15.9861 36.629 16.1568 36.5554 16.3174C36.4885 16.478 36.3948 16.6185 36.2743 16.739C36.02 16.9933 35.7055 17.1205 35.3307 17.1205ZM39.1353 11.1073C39.4365 11.1073 39.7276 11.0471 40.0087 10.9266C40.2898 10.7995 40.534 10.6288 40.7415 10.4147C40.949 10.2005 41.1129 9.95625 41.2334 9.68186C41.3538 9.40747 41.4141 9.12304 41.4141 8.82858C41.4141 8.52073 41.3505 8.20953 41.2233 7.89499C41.1029 7.58044 40.9389 7.31944 40.7314 7.11198C40.524 6.89782 40.2797 6.73051 39.9986 6.61004C39.7176 6.48289 39.4298 6.41931 39.1353 6.41931H36.6658V11.1073H39.1353ZM47.1963 17.1104C47.0156 17.1104 46.8416 17.077 46.6743 17.01C46.5137 16.9431 46.3731 16.8494 46.2527 16.729C46.1322 16.6085 46.0352 16.468 45.9616 16.3073C45.8946 16.1467 45.8612 15.9761 45.8612 15.7954V5.03398C45.8612 4.6659 45.9917 4.35136 46.2527 4.09036C46.3731 3.97658 46.5137 3.88624 46.6743 3.81931C46.8416 3.75239 47.0156 3.71893 47.1963 3.71893C47.5644 3.71893 47.8789 3.84274 48.1399 4.09036C48.4009 4.35136 48.5314 4.6659 48.5314 5.03398V15.7954C48.5314 15.9761 48.4946 16.1467 48.421 16.3073C48.3541 16.468 48.2604 16.6085 48.1399 16.729C47.8856 16.9833 47.5711 17.1104 47.1963 17.1104ZM52.4766 17.1004C52.1018 17.1004 51.7773 16.9699 51.5029 16.7089C51.2352 16.4546 51.1013 16.1333 51.1013 15.7452V8.98919C51.1013 8.23295 51.2084 7.5336 51.4226 6.89113C51.6434 6.24866 51.9613 5.69319 52.3762 5.22472C52.7979 4.74956 53.3098 4.38482 53.9121 4.13051C54.5145 3.86951 55.1904 3.739 55.9399 3.739C56.6962 3.739 57.3788 3.86616 57.9878 4.12047C58.6035 4.36809 59.1289 4.72948 59.5639 5.20464C59.9922 5.67311 60.3201 6.24531 60.5477 6.92124C60.7752 7.59048 60.889 8.33668 60.889 9.15985V15.7452C60.889 16.1199 60.7551 16.4412 60.4874 16.7089C60.3603 16.8293 60.2097 16.9264 60.0357 17C59.8684 17.0669 59.6944 17.1004 59.5137 17.1004C59.3196 17.1004 59.1389 17.0669 58.9716 17C58.8043 16.9264 58.6604 16.8293 58.5399 16.7089C58.2655 16.4479 58.1284 16.1266 58.1284 15.7452V13.6471H53.8519V15.7452C53.8519 16.1333 53.7181 16.4546 53.4504 16.7089C53.3232 16.8293 53.1726 16.9264 52.9986 17C52.8313 17.0669 52.6573 17.1004 52.4766 17.1004ZM58.1284 10.9066V9.15985C58.1284 8.30322 57.9477 7.64402 57.5863 7.18225C57.2249 6.71378 56.6962 6.47954 56.0002 6.47954C55.2975 6.47954 54.7621 6.69705 54.394 7.13205C54.0326 7.56037 53.8519 8.23964 53.8519 9.16989V10.9066H58.1284ZM64.7036 17.0201C64.3289 17.0201 64.0143 16.8929 63.76 16.6386C63.6395 16.5181 63.5425 16.3776 63.4689 16.217C63.402 16.0564 63.3685 15.8857 63.3685 15.705V5.07414C63.3685 4.89344 63.402 4.72279 63.4689 4.56217C63.5425 4.39486 63.6395 4.25097 63.76 4.13051C64.021 3.86951 64.3356 3.739 64.7036 3.739H68.4681C69.1507 3.739 69.7966 3.86616 70.4056 4.12047C71.0213 4.37478 71.5567 4.72948 72.0117 5.18456C72.4802 5.65303 72.8383 6.19177 73.0859 6.80078C73.3402 7.40979 73.4673 8.08237 73.4673 8.81854C73.4673 9.7287 73.2365 10.5719 72.7747 11.3483C72.3129 12.1179 71.7005 12.7102 70.9376 13.1251L72.4635 14.7313C72.7178 15.0057 72.8449 15.3202 72.8449 15.6749C72.8449 15.8489 72.8081 16.0196 72.7345 16.1869C72.6676 16.3475 72.5706 16.4914 72.4434 16.6185C72.1757 16.8862 71.8612 17.0201 71.4998 17.0201C71.1317 17.0201 70.8305 16.8896 70.5963 16.6286L67.8357 13.7676H66.0388V15.705C66.0388 15.8857 66.002 16.0564 65.9283 16.217C65.8614 16.3776 65.7677 16.5181 65.6473 16.6386C65.393 16.8929 65.0784 17.0201 64.7036 17.0201ZM68.5083 11.0973C68.8094 11.0973 69.1005 11.0371 69.3816 10.9166C69.6627 10.7895 69.907 10.6188 70.1144 10.4046C70.3286 10.1838 70.4959 9.93952 70.6164 9.67182C70.7368 9.39743 70.7971 9.113 70.7971 8.81854C70.7971 8.51069 70.7335 8.19949 70.6063 7.88495C70.4859 7.5704 70.3219 7.3094 70.1144 7.10194C69.9003 6.88778 69.6527 6.72047 69.3716 6.60001C69.0905 6.47954 68.8027 6.41931 68.5083 6.41931H66.0388V11.0973H68.5083Z" fill="#4C41C0"/>
<path d="M3.2921 31.0952C2.98013 31.0952 2.68515 31.0396 2.40715 30.9284C2.13225 30.8141 1.89132 30.6535 1.68437 30.4465C1.47125 30.2334 1.306 29.9816 1.18862 29.6913C1.07125 29.4009 1.01256 29.0843 1.01256 28.7415V27.2681C1.01256 26.9253 1.07125 26.6087 1.18862 26.3183C1.306 26.028 1.47125 25.7762 1.68437 25.5631C1.89132 25.3562 2.13225 25.1971 2.40715 25.0859C2.68515 24.9716 2.98013 24.9145 3.2921 24.9145C3.74306 24.9145 4.1446 25.021 4.49673 25.2342C4.76236 25.3948 5.00484 25.6326 5.22414 25.9477C5.31063 26.0743 5.35387 26.2102 5.35387 26.3554C5.35387 26.5191 5.29209 26.6596 5.16854 26.777C5.0419 26.8975 4.88901 26.9577 4.70985 26.9577C4.51526 26.9577 4.37318 26.8851 4.2836 26.7399C4.20947 26.6257 4.14769 26.5376 4.09827 26.4759C4.05194 26.4141 3.99634 26.3616 3.93148 26.3183C3.77704 26.2133 3.56391 26.1608 3.2921 26.1608C2.9863 26.1608 2.74538 26.2473 2.56932 26.4203C2.35928 26.621 2.25426 26.9006 2.25426 27.2589V28.7508C2.25426 29.1091 2.35928 29.3886 2.56932 29.5894C2.74538 29.7623 2.9863 29.8488 3.2921 29.8488C3.56082 29.8488 3.77549 29.7963 3.93611 29.6913C4.00098 29.6481 4.05812 29.5955 4.10754 29.5338C4.15696 29.4689 4.21565 29.3809 4.2836 29.2697C4.32993 29.1986 4.39016 29.1461 4.4643 29.1121C4.54152 29.0751 4.62491 29.0565 4.71449 29.0565C4.89364 29.0565 5.04653 29.1152 5.17318 29.2326C5.29364 29.3531 5.35387 29.4936 5.35387 29.6542C5.35387 29.784 5.31372 29.9137 5.23341 30.0434C5.15619 30.1701 5.04808 30.306 4.90908 30.4511C4.64653 30.7199 4.33302 30.9052 3.96854 31.0071C3.77395 31.0658 3.54847 31.0952 3.2921 31.0952ZM7.94846 31.0442C7.73534 31.0442 7.53147 31.0087 7.33688 30.9376C7.14537 30.8635 6.97549 30.76 6.82723 30.6272C6.67897 30.4913 6.56314 30.3307 6.47974 30.1453C6.39634 29.96 6.35464 29.7592 6.35464 29.543V25.5863C6.35464 25.4133 6.41333 25.2681 6.5307 25.1508C6.64499 25.0303 6.78398 24.9701 6.94769 24.9701C7.03109 24.9701 7.1114 24.9871 7.18862 25.021C7.26893 25.0519 7.33842 25.0952 7.39711 25.1508C7.4558 25.2094 7.50213 25.2759 7.53611 25.35C7.57008 25.4241 7.58707 25.5029 7.58707 25.5863V29.5708C7.59943 29.7469 7.71989 29.8349 7.94846 29.8349C8.03495 29.8349 8.11526 29.8504 8.18939 29.8813C8.26661 29.9121 8.33147 29.9554 8.38398 30.011C8.43958 30.0666 8.48128 30.1314 8.50908 30.2056C8.53997 30.2797 8.55541 30.3585 8.55541 30.4419C8.55541 30.5253 8.53997 30.604 8.50908 30.6782C8.48128 30.7523 8.43958 30.8172 8.38398 30.8728C8.33147 30.9253 8.26661 30.967 8.18939 30.9979C8.11217 31.0287 8.03186 31.0442 7.94846 31.0442ZM11.15 31.0952C10.8442 31.0952 10.5523 31.0365 10.2743 30.9191C9.99634 30.8017 9.75232 30.6396 9.54228 30.4326C9.33225 30.2226 9.167 29.9816 9.04653 29.7098C8.92916 29.4349 8.87047 29.1446 8.87047 28.8388C8.87047 28.5299 8.92916 28.238 9.04653 27.9631C9.167 27.6851 9.33225 27.4411 9.54228 27.2311C9.75232 27.0241 9.99479 26.8635 10.2697 26.7492C10.5477 26.6318 10.8411 26.5731 11.15 26.5731C11.4527 26.5731 11.7415 26.6303 12.0164 26.7446C12.2913 26.8589 12.5338 27.0179 12.7438 27.2218C12.9508 27.4287 13.1145 27.6697 13.2349 27.9446C13.3554 28.2164 13.4187 28.5037 13.4249 28.8064C13.4249 28.9824 13.3678 29.1245 13.2535 29.2326C13.1423 29.3376 12.9971 29.3901 12.818 29.3901H10.2465C10.3485 29.5508 10.4782 29.6774 10.6357 29.7701C10.7932 29.8627 10.9647 29.9091 11.15 29.9091C11.2643 29.9091 11.3585 29.8998 11.4326 29.8813C11.5068 29.8627 11.5747 29.8349 11.6365 29.7979C11.7539 29.7237 11.8728 29.6867 11.9932 29.6867C12.16 29.6867 12.3037 29.75 12.4241 29.8766C12.4766 29.9353 12.5183 30.0033 12.5492 30.0805C12.5801 30.1577 12.5956 30.238 12.5956 30.3214C12.5956 30.4295 12.5647 30.5299 12.5029 30.6226C12.4442 30.7152 12.3562 30.7955 12.2388 30.8635C11.9701 31.0179 11.6071 31.0952 11.15 31.0952ZM12.16 28.3616C12.0736 28.1731 11.9423 28.0249 11.7662 27.9168C11.5932 27.8056 11.3956 27.75 11.1732 27.75C10.9508 27.75 10.7562 27.8056 10.5894 27.9168C10.4226 28.028 10.296 28.1762 10.2095 28.3616H12.16ZM16.0983 31.0952C15.7925 31.0952 15.5021 31.038 15.2272 30.9237C14.9554 30.8064 14.7145 30.6426 14.5044 30.4326C14.2944 30.2257 14.1307 29.9847 14.0133 29.7098C13.896 29.4349 13.8373 29.1446 13.8373 28.8388C13.8373 28.533 13.896 28.2426 14.0133 27.9677C14.1307 27.6898 14.2944 27.4457 14.5044 27.2357C14.7145 27.0257 14.9554 26.8635 15.2272 26.7492C15.5021 26.6318 15.7925 26.5731 16.0983 26.5731C16.401 26.5731 16.6882 26.6303 16.96 26.7446C17.2349 26.8589 17.4759 27.0195 17.6828 27.2264C17.8898 27.4303 18.0519 27.6681 18.1693 27.9399C18.2898 28.2118 18.3531 28.499 18.3593 28.8017V30.465C18.3593 30.6411 18.299 30.7894 18.1786 30.9098C18.1199 30.9685 18.0519 31.0133 17.9747 31.0442C17.8975 31.0782 17.8156 31.0952 17.7292 31.0952C17.6149 31.0952 17.5129 31.0704 17.4234 31.021C17.3369 30.9685 17.2658 30.8959 17.2102 30.8033C16.8612 30.9979 16.4905 31.0952 16.0983 31.0952ZM16.0983 29.8581C16.2373 29.8581 16.3701 29.8318 16.4967 29.7793C16.6234 29.7268 16.733 29.6542 16.8257 29.5616C16.9214 29.4658 16.9956 29.3562 17.0481 29.2326C17.1006 29.1091 17.1268 28.9778 17.1268 28.8388C17.1268 28.6998 17.1006 28.5685 17.0481 28.445C16.9956 28.3214 16.9214 28.2118 16.8257 28.116C16.733 28.0233 16.6234 27.9508 16.4967 27.8982C16.3701 27.8457 16.2373 27.8195 16.0983 27.8195C15.9624 27.8195 15.8311 27.8457 15.7044 27.8982C15.5809 27.9508 15.4728 28.0233 15.3801 28.116C15.2844 28.2118 15.2087 28.3214 15.1531 28.445C15.1006 28.5685 15.0743 28.6998 15.0743 28.8388C15.0743 28.9778 15.1006 29.1091 15.1531 29.2326C15.2087 29.3562 15.2844 29.4658 15.3801 29.5616C15.4728 29.6542 15.5809 29.7268 15.7044 29.7793C15.8311 29.8318 15.9624 29.8581 16.0983 29.8581ZM19.6797 31.0442C19.5963 31.0442 19.516 31.0287 19.4388 30.9979C19.3616 30.967 19.2936 30.9237 19.2349 30.8681C19.1083 30.7508 19.045 30.6087 19.045 30.4419V28.7739C19.045 28.4774 19.1021 28.1948 19.2164 27.926C19.3307 27.6573 19.4898 27.421 19.6936 27.2172C19.8975 27.0133 20.1322 26.8558 20.3979 26.7446C20.6635 26.6303 20.9446 26.5731 21.2411 26.5731C21.5407 26.5731 21.8264 26.6303 22.0983 26.7446C22.3732 26.8558 22.6156 27.0133 22.8257 27.2172C23.0357 27.421 23.1994 27.6573 23.3168 27.926C23.4373 28.1948 23.4975 28.4774 23.4975 28.7739V30.4419C23.4975 30.6118 23.4403 30.7538 23.3261 30.8681C23.2705 30.9237 23.2056 30.967 23.1315 30.9979C23.0573 31.0287 22.9786 31.0442 22.8952 31.0442C22.8087 31.0442 22.7268 31.0287 22.6496 30.9979C22.5755 30.967 22.5106 30.9237 22.455 30.8681C22.3315 30.7538 22.2697 30.6118 22.2697 30.4419V28.7786C22.2666 28.6488 22.2373 28.5253 22.1817 28.4079C22.1261 28.2874 22.0488 28.1824 21.95 28.0928C21.8542 28.0033 21.7446 27.9338 21.621 27.8843C21.4975 27.8349 21.3708 27.8102 21.2411 27.8102C21.1114 27.8102 20.9878 27.8349 20.8705 27.8843C20.7531 27.9307 20.6527 27.9955 20.5693 28.0789C20.4828 28.1654 20.4133 28.2674 20.3608 28.3847C20.3114 28.499 20.2851 28.621 20.282 28.7508V30.4419C20.282 30.6148 20.2234 30.7569 20.106 30.8681C19.9886 30.9855 19.8465 31.0442 19.6797 31.0442ZM25.0079 26.1979C24.8288 26.1979 24.6743 26.133 24.5446 26.0033C24.4828 25.9415 24.4334 25.8704 24.3963 25.7901C24.3624 25.7098 24.3454 25.6264 24.3454 25.5399C24.3454 25.3608 24.4118 25.2048 24.5446 25.072C24.6712 24.9454 24.8257 24.882 25.0079 24.882C25.0975 24.882 25.1824 24.899 25.2627 24.933C25.343 24.9639 25.4141 25.0102 25.4759 25.072C25.6056 25.2017 25.6705 25.3577 25.6705 25.5399C25.6705 25.7191 25.6056 25.8735 25.4759 26.0033C25.4141 26.065 25.343 26.1129 25.2627 26.1469C25.1824 26.1809 25.0975 26.1979 25.0079 26.1979ZM25.0079 31.0952C24.9245 31.0952 24.8442 31.0782 24.767 31.0442C24.6929 31.0133 24.628 30.9701 24.5724 30.9145C24.5137 30.8589 24.4674 30.794 24.4334 30.7199C24.3994 30.6426 24.3824 30.5639 24.3824 30.4836V27.1847C24.3824 27.1044 24.3994 27.0272 24.4334 26.9531C24.4674 26.8759 24.5137 26.8094 24.5724 26.7538C24.628 26.6982 24.6944 26.655 24.7716 26.6241C24.8519 26.5901 24.9338 26.5731 25.0172 26.5731C25.0975 26.5731 25.1747 26.5901 25.2488 26.6241C25.3261 26.655 25.3925 26.6982 25.4481 26.7538C25.5037 26.8094 25.5454 26.8743 25.5732 26.9484C25.6041 27.0226 25.6195 27.1013 25.6195 27.1847V30.4836C25.6195 30.5639 25.6025 30.6426 25.5685 30.7199C25.5376 30.794 25.4944 30.8589 25.4388 30.9145C25.3832 30.9701 25.3183 31.0133 25.2442 31.0442C25.1701 31.0782 25.0913 31.0952 25.0079 31.0952ZM27.0095 31.0442C26.9261 31.0442 26.8457 31.0287 26.7685 30.9979C26.6913 30.967 26.6234 30.9237 26.5647 30.8681C26.438 30.7508 26.3747 30.6087 26.3747 30.4419V28.7739C26.3747 28.4774 26.4319 28.1948 26.5461 27.926C26.6604 27.6573 26.8195 27.421 27.0234 27.2172C27.2272 27.0133 27.462 26.8558 27.7276 26.7446C27.9932 26.6303 28.2743 26.5731 28.5708 26.5731C28.8705 26.5731 29.1562 26.6303 29.428 26.7446C29.7029 26.8558 29.9454 27.0133 30.1554 27.2172C30.3654 27.421 30.5291 27.6573 30.6465 27.926C30.767 28.1948 30.8272 28.4774 30.8272 28.7739V30.4419C30.8272 30.6118 30.7701 30.7538 30.6558 30.8681C30.6002 30.9237 30.5353 30.967 30.4612 30.9979C30.3871 31.0287 30.3083 31.0442 30.2249 31.0442C30.1384 31.0442 30.0566 31.0287 29.9793 30.9979C29.9052 30.967 29.8403 30.9237 29.7847 30.8681C29.6612 30.7538 29.5994 30.6118 29.5994 30.4419V28.7786C29.5963 28.6488 29.567 28.5253 29.5114 28.4079C29.4558 28.2874 29.3786 28.1824 29.2797 28.0928C29.184 28.0033 29.0743 27.9338 28.9508 27.8843C28.8272 27.8349 28.7006 27.8102 28.5708 27.8102C28.4411 27.8102 28.3176 27.8349 28.2002 27.8843C28.0828 27.9307 27.9824 27.9955 27.899 28.0789C27.8125 28.1654 27.743 28.2674 27.6905 28.3847C27.6411 28.499 27.6149 28.621 27.6118 28.7508V30.4419C27.6118 30.6148 27.5531 30.7569 27.4357 30.8681C27.3183 30.9855 27.1763 31.0442 27.0095 31.0442ZM32.9122 33.2125C32.8318 33.2125 32.7515 33.1955 32.6712 33.1616C32.594 33.1276 32.523 33.0813 32.4581 33.0226C32.3932 32.967 32.3423 32.9006 32.3052 32.8233C32.2712 32.7492 32.2542 32.6704 32.2542 32.587C32.2542 32.482 32.2928 32.3708 32.3701 32.2535C32.4504 32.1392 32.56 32.0357 32.699 31.943C32.8473 31.8442 33.0187 31.7654 33.2133 31.7067C33.411 31.6481 33.621 31.6187 33.8434 31.6187C34.0349 31.6187 34.1894 31.611 34.3067 31.5955C34.4241 31.5832 34.5168 31.5616 34.5847 31.5307C34.6527 31.4998 34.699 31.4565 34.7237 31.4009C34.7515 31.3484 34.7654 31.2758 34.7654 31.1832C34.7654 31.0565 34.733 30.9562 34.6681 30.882C34.3747 31.0241 34.0535 31.0952 33.7044 31.0952C33.3986 31.0952 33.1083 31.038 32.8334 30.9237C32.5616 30.8064 32.3206 30.6426 32.1106 30.4326C31.9006 30.2257 31.7369 29.9847 31.6195 29.7098C31.5021 29.4349 31.4434 29.1446 31.4434 28.8388C31.4434 28.533 31.5021 28.2426 31.6195 27.9677C31.7369 27.6898 31.9006 27.4457 32.1106 27.2357C32.3206 27.0257 32.5616 26.8635 32.8334 26.7492C33.1083 26.6318 33.3986 26.5731 33.7044 26.5731C34.0102 26.5731 34.3006 26.6318 34.5755 26.7492C34.8535 26.8666 35.0959 27.0287 35.3029 27.2357C35.5098 27.4457 35.672 27.6898 35.7894 27.9677C35.9067 28.2426 35.9654 28.533 35.9654 28.8388C35.9654 29.2805 35.8465 29.6851 35.6087 30.0527C35.8589 30.3152 35.984 30.6874 35.984 31.1693C35.984 31.4658 35.9345 31.7222 35.8357 31.9384C35.74 32.1546 35.6056 32.3322 35.4326 32.4712C35.272 32.5979 35.0836 32.6921 34.8674 32.7538C34.6542 32.8187 34.4272 32.8511 34.1863 32.8511C34.1152 32.8511 34.0627 32.8496 34.0288 32.8465C33.9948 32.8434 33.9423 32.8419 33.8712 32.8419C33.76 32.8419 33.6596 32.8573 33.5701 32.8882C33.4805 32.9222 33.3832 32.9824 33.2782 33.0689C33.1639 33.1647 33.0419 33.2125 32.9122 33.2125ZM33.7044 29.8581C33.8434 29.8581 33.9762 29.8318 34.1029 29.7793C34.2295 29.7268 34.3392 29.6542 34.4318 29.5616C34.5276 29.4658 34.6017 29.3562 34.6542 29.2326C34.7067 29.1091 34.733 28.9778 34.733 28.8388C34.733 28.6998 34.7067 28.5685 34.6542 28.445C34.6017 28.3214 34.5276 28.2118 34.4318 28.116C34.3392 28.0233 34.2295 27.9508 34.1029 27.8982C33.9762 27.8457 33.8434 27.8195 33.7044 27.8195C33.5685 27.8195 33.4373 27.8457 33.3106 27.8982C33.1871 27.9508 33.0789 28.0233 32.9863 28.116C32.8905 28.2118 32.8149 28.3214 32.7593 28.445C32.7067 28.5685 32.6805 28.6998 32.6805 28.8388C32.6805 28.9778 32.7067 29.1091 32.7593 29.2326C32.8149 29.3562 32.8905 29.4658 32.9863 29.5616C33.0789 29.6542 33.1871 29.7268 33.3106 29.7793C33.4373 29.8318 33.5685 29.8581 33.7044 29.8581ZM37.2257 32.2118C37.0496 32.2118 36.9013 32.1484 36.7809 32.0218C36.7253 31.9662 36.6805 31.8982 36.6465 31.8179C36.6156 31.7407 36.6002 31.6573 36.6002 31.5677V30.4094C36.6002 30.3199 36.6156 30.2365 36.6465 30.1592C36.6805 30.0789 36.7253 30.0094 36.7809 29.9508C36.9044 29.8272 37.0527 29.7654 37.2257 29.7654C37.3955 29.7654 37.5423 29.8272 37.6658 29.9508C37.777 30.0712 37.8326 30.2241 37.8326 30.4094V31.5677C37.8326 31.6573 37.8172 31.7407 37.7863 31.8179C37.7585 31.8982 37.7183 31.9662 37.6658 32.0218C37.5454 32.1484 37.3986 32.2118 37.2257 32.2118ZM41.6921 31.0442C41.4697 31.0442 41.2952 30.9855 41.1685 30.8681C41.0419 30.7477 40.9786 30.5886 40.9786 30.3909C40.9786 30.1994 41.0403 30.0573 41.1639 29.9647C41.2874 29.8689 41.4635 29.821 41.6921 29.821H43.4064C43.4558 29.8179 43.5083 29.8009 43.5639 29.7701C43.6195 29.7392 43.6704 29.6975 43.7168 29.645C43.828 29.5183 43.8836 29.3654 43.8836 29.1863C43.8836 29.0133 43.8249 28.8604 43.7075 28.7276C43.6612 28.6751 43.6087 28.6349 43.55 28.6071C43.4944 28.5793 43.4419 28.5654 43.3925 28.5654H42.6697C42.4133 28.5654 42.1693 28.5237 41.9376 28.4403C41.7091 28.3569 41.5098 28.238 41.3399 28.0836C41.167 27.926 41.0311 27.7423 40.9322 27.5322C40.8365 27.3191 40.7886 27.0859 40.7886 26.8326C40.7886 26.2921 40.9724 25.838 41.3399 25.4704C41.5129 25.2975 41.7137 25.1631 41.9423 25.0674C42.1708 24.9716 42.4133 24.9237 42.6697 24.9237H44.194C44.4195 24.9237 44.5955 24.9762 44.7222 25.0813C44.8519 25.1832 44.9168 25.3299 44.9168 25.5214C44.9168 25.7315 44.8535 25.8905 44.7268 25.9986C44.6002 26.1067 44.4226 26.1608 44.194 26.1608H42.4797C42.4334 26.1608 42.384 26.1732 42.3315 26.1979C42.282 26.2195 42.2342 26.2519 42.1878 26.2952C42.1384 26.3446 42.0983 26.411 42.0674 26.4944C42.0365 26.5778 42.021 26.6643 42.021 26.7538C42.021 26.9145 42.0751 27.055 42.1832 27.1755C42.2264 27.2249 42.2728 27.265 42.3222 27.2959C42.3747 27.3237 42.4226 27.3392 42.4658 27.3423H43.2164C43.4759 27.3423 43.7214 27.3855 43.9531 27.472C44.1847 27.5585 44.3871 27.6805 44.56 27.838C44.7361 27.9986 44.872 28.1886 44.9677 28.4079C45.0666 28.6272 45.116 28.8635 45.116 29.1168C45.116 29.3701 45.0681 29.6125 44.9724 29.8442C44.8797 30.0728 44.7484 30.2751 44.5786 30.4511C44.4087 30.6303 44.211 30.7724 43.9855 30.8774C43.7631 30.9793 43.5253 31.0349 43.272 31.0442H41.6921ZM46.5245 26.1979C46.3454 26.1979 46.1909 26.133 46.0612 26.0033C45.9994 25.9415 45.95 25.8704 45.9129 25.7901C45.8789 25.7098 45.862 25.6264 45.862 25.5399C45.862 25.3608 45.9284 25.2048 46.0612 25.072C46.1878 24.9454 46.3423 24.882 46.5245 24.882C46.6141 24.882 46.699 24.899 46.7793 24.933C46.8596 24.9639 46.9307 25.0102 46.9925 25.072C47.1222 25.2017 47.1871 25.3577 47.1871 25.5399C47.1871 25.7191 47.1222 25.8735 46.9925 26.0033C46.9307 26.065 46.8596 26.1129 46.7793 26.1469C46.699 26.1809 46.6141 26.1979 46.5245 26.1979ZM46.5245 31.0952C46.4411 31.0952 46.3608 31.0782 46.2836 31.0442C46.2094 31.0133 46.1446 30.9701 46.089 30.9145C46.0303 30.8589 45.984 30.794 45.95 30.7199C45.916 30.6426 45.899 30.5639 45.899 30.4836V27.1847C45.899 27.1044 45.916 27.0272 45.95 26.9531C45.984 26.8759 46.0303 26.8094 46.089 26.7538C46.1446 26.6982 46.211 26.655 46.2882 26.6241C46.3685 26.5901 46.4504 26.5731 46.5338 26.5731C46.6141 26.5731 46.6913 26.5901 46.7654 26.6241C46.8426 26.655 46.9091 26.6982 46.9647 26.7538C47.0203 26.8094 47.062 26.8743 47.0898 26.9484C47.1206 27.0226 47.1361 27.1013 47.1361 27.1847V30.4836C47.1361 30.5639 47.1191 30.6426 47.0851 30.7199C47.0542 30.794 47.011 30.8589 46.9554 30.9145C46.8998 30.9701 46.8349 31.0133 46.7608 31.0442C46.6867 31.0782 46.6079 31.0952 46.5245 31.0952ZM48.6511 31.0442C48.4782 31.0442 48.333 30.9855 48.2156 30.8681C48.16 30.8125 48.1152 30.7477 48.0813 30.6735C48.0504 30.5994 48.0349 30.5206 48.0349 30.4372V28.0928C48.0349 27.8674 48.0782 27.6542 48.1647 27.4535C48.2511 27.2527 48.3716 27.0751 48.526 26.9206C48.6774 26.7662 48.8535 26.6473 49.0542 26.5639C49.255 26.4774 49.4681 26.4342 49.6936 26.4342C50.0797 26.4342 50.4318 26.5608 50.75 26.8141C51.0681 26.5608 51.4187 26.4342 51.8017 26.4342C52.0272 26.4342 52.2434 26.4774 52.4504 26.5639C52.6573 26.6473 52.8411 26.7662 53.0017 26.9206C53.1623 27.0751 53.2874 27.2542 53.377 27.4581C53.4666 27.6589 53.5114 27.8704 53.5114 28.0928V30.4372C53.5114 30.5206 53.4944 30.5994 53.4604 30.6735C53.4295 30.7477 53.3863 30.8125 53.3307 30.8681C53.2133 30.9855 53.0712 31.0442 52.9044 31.0442C52.7315 31.0442 52.5863 30.9855 52.4689 30.8681C52.4133 30.8125 52.3685 30.7477 52.3345 30.6735C52.3037 30.5994 52.2882 30.5206 52.2882 30.4372V28.1299C52.2882 28.0743 52.2743 28.0203 52.2465 27.9677C52.2187 27.9121 52.1816 27.8643 52.1353 27.8241C52.089 27.787 52.0365 27.7577 51.9778 27.7361C51.9222 27.7145 51.8666 27.7037 51.811 27.7037C51.7029 27.7037 51.6071 27.7392 51.5237 27.8102C51.4434 27.8782 51.3955 27.9647 51.3801 28.0697C51.3801 28.0851 51.3816 28.0975 51.3847 28.1067V28.1484V30.4187C51.3847 30.5855 51.326 30.7307 51.2087 30.8542C51.1531 30.9098 51.0882 30.9546 51.0141 30.9886C50.9399 31.0195 50.8612 31.0349 50.7778 31.0349C50.6079 31.0349 50.4627 30.9747 50.3423 30.8542C50.2218 30.7338 50.1616 30.5886 50.1616 30.4187V28.1901L50.1523 28.1345V28.1299C50.1523 28.0743 50.1399 28.0203 50.1152 27.9677C50.0936 27.9121 50.0627 27.8643 50.0226 27.8241C49.9824 27.784 49.9345 27.7531 49.8789 27.7315C49.8264 27.7067 49.7724 27.6944 49.7168 27.6944C49.6087 27.6944 49.5129 27.7268 49.4295 27.7917C49.3461 27.8565 49.2921 27.9399 49.2674 28.0419C49.2735 28.0851 49.2766 28.1145 49.2766 28.1299L49.2581 30.4372C49.255 30.5206 49.238 30.5994 49.2071 30.6735C49.1762 30.7477 49.133 30.8125 49.0774 30.8681C48.96 30.9855 48.8179 31.0442 48.6511 31.0442ZM54.9013 32.6473C54.8179 32.6473 54.7376 32.6303 54.6604 32.5963C54.5832 32.5654 54.5168 32.5206 54.4612 32.4619C54.4025 32.4033 54.3562 32.3338 54.3222 32.2535C54.2882 32.1762 54.2712 32.0928 54.2712 32.0033V28.8017C54.2743 28.5021 54.3361 28.2164 54.4565 27.9446C54.577 27.6728 54.7423 27.4334 54.9523 27.2264C55.1592 27.0226 55.4002 26.8635 55.6751 26.7492C55.95 26.6318 56.2372 26.5731 56.5369 26.5731C56.8396 26.5731 57.1284 26.6318 57.4033 26.7492C57.6813 26.8666 57.9237 27.0287 58.1307 27.2357C58.3376 27.4457 58.4998 27.6898 58.6172 27.9677C58.7345 28.2426 58.7932 28.533 58.7932 28.8388C58.7932 29.1446 58.7345 29.4349 58.6172 29.7098C58.5029 29.9816 58.3407 30.2226 58.1307 30.4326C57.9237 30.6396 57.6813 30.8017 57.4033 30.9191C57.1284 31.0365 56.8396 31.0952 56.5369 31.0952C56.1724 31.0952 55.828 31.0118 55.5037 30.845V32.0033C55.5037 32.1886 55.4481 32.3415 55.3369 32.4619C55.2226 32.5855 55.0774 32.6473 54.9013 32.6473ZM56.5369 29.8581C56.6759 29.8581 56.8071 29.8318 56.9307 29.7793C57.0573 29.7268 57.167 29.6542 57.2596 29.5616C57.3554 29.4658 57.4295 29.3562 57.482 29.2326C57.5345 29.1091 57.5608 28.9778 57.5608 28.8388C57.5608 28.6998 57.5345 28.5685 57.482 28.445C57.4295 28.3214 57.3554 28.2118 57.2596 28.116C57.167 28.0233 57.0573 27.9508 56.9307 27.8982C56.8071 27.8457 56.6759 27.8195 56.5369 27.8195C56.3979 27.8195 56.265 27.8457 56.1384 27.8982C56.0148 27.9508 55.9067 28.0233 55.8141 28.116C55.7183 28.2118 55.6426 28.3214 55.587 28.445C55.5345 28.5685 55.5083 28.6998 55.5083 28.8388C55.5083 28.9778 55.5345 29.1091 55.587 29.2326C55.6426 29.3562 55.7183 29.4658 55.8141 29.5616C55.9067 29.6542 56.0148 29.7268 56.1384 29.7793C56.265 29.8318 56.3979 29.8581 56.5369 29.8581ZM61.2118 31.0442C60.9986 31.0442 60.7948 31.0087 60.6002 30.9376C60.4087 30.8635 60.2388 30.76 60.0905 30.6272C59.9423 30.4913 59.8264 30.3307 59.743 30.1453C59.6596 29.96 59.6179 29.7592 59.6179 29.543V25.5863C59.6179 25.4133 59.6766 25.2681 59.794 25.1508C59.9083 25.0303 60.0473 24.9701 60.211 24.9701C60.2944 24.9701 60.3747 24.9871 60.4519 25.021C60.5322 25.0519 60.6017 25.0952 60.6604 25.1508C60.7191 25.2094 60.7654 25.2759 60.7994 25.35C60.8334 25.4241 60.8504 25.5029 60.8504 25.5863V29.5708C60.8627 29.7469 60.9832 29.8349 61.2118 29.8349C61.2982 29.8349 61.3785 29.8504 61.4527 29.8813C61.5299 29.9121 61.5948 29.9554 61.6473 30.011C61.7029 30.0666 61.7446 30.1314 61.7724 30.2056C61.8033 30.2797 61.8187 30.3585 61.8187 30.4419C61.8187 30.5253 61.8033 30.604 61.7724 30.6782C61.7446 30.7523 61.7029 30.8172 61.6473 30.8728C61.5948 30.9253 61.5299 30.967 61.4527 30.9979C61.3755 31.0287 61.2952 31.0442 61.2118 31.0442ZM63.028 26.1979C62.8488 26.1979 62.6944 26.133 62.5646 26.0033C62.5029 25.9415 62.4535 25.8704 62.4164 25.7901C62.3824 25.7098 62.3654 25.6264 62.3654 25.5399C62.3654 25.3608 62.4318 25.2048 62.5646 25.072C62.6913 24.9454 62.8457 24.882 63.028 24.882C63.1175 24.882 63.2025 24.899 63.2828 24.933C63.3631 24.9639 63.4341 25.0102 63.4959 25.072C63.6257 25.2017 63.6905 25.3577 63.6905 25.5399C63.6905 25.7191 63.6257 25.8735 63.4959 26.0033C63.4341 26.065 63.3631 26.1129 63.2828 26.1469C63.2025 26.1809 63.1175 26.1979 63.028 26.1979ZM63.028 31.0952C62.9446 31.0952 62.8643 31.0782 62.787 31.0442C62.7129 31.0133 62.648 30.9701 62.5924 30.9145C62.5338 30.8589 62.4874 30.794 62.4535 30.7199C62.4195 30.6426 62.4025 30.5639 62.4025 30.4836V27.1847C62.4025 27.1044 62.4195 27.0272 62.4535 26.9531C62.4874 26.8759 62.5338 26.8094 62.5924 26.7538C62.648 26.6982 62.7145 26.655 62.7917 26.6241C62.872 26.5901 62.9538 26.5731 63.0372 26.5731C63.1175 26.5731 63.1948 26.5901 63.2689 26.6241C63.3461 26.655 63.4125 26.6982 63.4681 26.7538C63.5237 26.8094 63.5654 26.8743 63.5932 26.9484C63.6241 27.0226 63.6396 27.1013 63.6396 27.1847V30.4836C63.6396 30.5639 63.6226 30.6426 63.5886 30.7199C63.5577 30.794 63.5145 30.8589 63.4589 30.9145C63.4033 30.9701 63.3384 31.0133 63.2643 31.0442C63.1901 31.0782 63.1114 31.0952 63.028 31.0952ZM66.716 27.7222C66.7994 27.7222 66.8797 27.7392 66.9569 27.7731C67.0341 27.804 67.1005 27.8473 67.1561 27.9029C67.2117 27.9585 67.255 28.0233 67.2859 28.0975C67.3199 28.1716 67.3368 28.2504 67.3368 28.3338C67.3368 28.4172 67.3199 28.4975 67.2859 28.5747C67.255 28.6519 67.2117 28.7183 67.1561 28.7739C67.1005 28.8295 67.0341 28.8743 66.9569 28.9083C66.8797 28.9392 66.7994 28.9546 66.716 28.9546H66.438V30.8959V30.9145C66.4349 31.1276 66.3917 31.3284 66.3083 31.5168C66.228 31.7083 66.1168 31.8766 65.9747 32.0218C65.8295 32.1731 65.6596 32.2905 65.465 32.3739C65.2704 32.4573 65.0635 32.499 64.8442 32.499C64.6712 32.499 64.526 32.4403 64.4087 32.323C64.2882 32.2025 64.228 32.0542 64.228 31.8782C64.228 31.7979 64.2434 31.7191 64.2743 31.6419C64.3083 31.5677 64.3531 31.5029 64.4087 31.4473C64.5291 31.3268 64.6743 31.2666 64.8442 31.2666C64.9368 31.2666 65.0172 31.2326 65.0851 31.1647C65.1561 31.0967 65.1948 31.0164 65.2009 30.9237V28.9546H65.0666C64.8936 28.9546 64.7484 28.8928 64.6311 28.7693C64.5755 28.7137 64.5307 28.6488 64.4967 28.5747C64.4658 28.4975 64.4504 28.4172 64.4504 28.3338C64.4504 28.2504 64.4658 28.1716 64.4967 28.0975C64.5307 28.0233 64.5755 27.9585 64.6311 27.9029C64.7515 27.7824 64.8967 27.7222 65.0666 27.7222H65.2009V26.5037C65.204 26.2936 65.2473 26.0928 65.3307 25.9013C65.4141 25.7067 65.5299 25.5369 65.6782 25.3917C65.8264 25.2465 65.9963 25.1338 66.1878 25.0535C66.3793 24.9701 66.5832 24.9284 66.7994 24.9284C66.8828 24.9284 66.9631 24.9454 67.0403 24.9793C67.1175 25.0102 67.1855 25.0535 67.2442 25.1091C67.2998 25.1647 67.343 25.2326 67.3739 25.3129C67.4079 25.3901 67.4249 25.4704 67.4249 25.5538C67.4249 25.6342 67.4079 25.7129 67.3739 25.7901C67.343 25.8643 67.2998 25.9291 67.2442 25.9847C67.1855 26.0403 67.1175 26.0851 67.0403 26.1191C66.9631 26.15 66.8828 26.1654 66.7994 26.1654H66.7855C66.6928 26.1716 66.6125 26.2071 66.5446 26.272C66.4797 26.3369 66.4442 26.4156 66.438 26.5083V27.7222H66.716ZM68.3144 26.1979C68.1353 26.1979 67.9809 26.133 67.8511 26.0033C67.7894 25.9415 67.7399 25.8704 67.7029 25.7901C67.6689 25.7098 67.6519 25.6264 67.6519 25.5399C67.6519 25.3608 67.7183 25.2048 67.8511 25.072C67.9778 24.9454 68.1322 24.882 68.3144 24.882C68.404 24.882 68.489 24.899 68.5693 24.933C68.6496 24.9639 68.7206 25.0102 68.7824 25.072C68.9121 25.2017 68.977 25.3577 68.977 25.5399C68.977 25.7191 68.9121 25.8735 68.7824 26.0033C68.7206 26.065 68.6496 26.1129 68.5693 26.1469C68.489 26.1809 68.404 26.1979 68.3144 26.1979ZM68.3144 31.0952C68.2311 31.0952 68.1507 31.0782 68.0735 31.0442C67.9994 31.0133 67.9345 30.9701 67.8789 30.9145C67.8202 30.8589 67.7739 30.794 67.7399 30.7199C67.706 30.6426 67.689 30.5639 67.689 30.4836V27.1847C67.689 27.1044 67.706 27.0272 67.7399 26.9531C67.7739 26.8759 67.8202 26.8094 67.8789 26.7538C67.9345 26.6982 68.0009 26.655 68.0782 26.6241C68.1585 26.5901 68.2403 26.5731 68.3237 26.5731C68.404 26.5731 68.4812 26.5901 68.5554 26.6241C68.6326 26.655 68.699 26.6982 68.7546 26.7538C68.8102 26.8094 68.8519 26.8743 68.8797 26.9484C68.9106 27.0226 68.926 27.1013 68.926 27.1847V30.4836C68.926 30.5639 68.909 30.6426 68.8751 30.7199C68.8442 30.794 68.8009 30.8589 68.7453 30.9145C68.6897 30.9701 68.6249 31.0133 68.5507 31.0442C68.4766 31.0782 68.3978 31.0952 68.3144 31.0952ZM72.2619 31.0952C71.9561 31.0952 71.6643 31.0365 71.3863 30.9191C71.1083 30.8017 70.8643 30.6396 70.6542 30.4326C70.4442 30.2226 70.2789 29.9816 70.1585 29.7098C70.0411 29.4349 69.9824 29.1446 69.9824 28.8388C69.9824 28.5299 70.0411 28.238 70.1585 27.9631C70.2789 27.6851 70.4442 27.4411 70.6542 27.2311C70.8643 27.0241 71.1067 26.8635 71.3816 26.7492C71.6596 26.6318 71.9531 26.5731 72.2619 26.5731C72.5646 26.5731 72.8534 26.6303 73.1283 26.7446C73.4032 26.8589 73.6457 27.0179 73.8558 27.2218C74.0627 27.4287 74.2264 27.6697 74.3469 27.9446C74.4673 28.2164 74.5307 28.5037 74.5368 28.8064C74.5368 28.9824 74.4797 29.1245 74.3654 29.2326C74.2542 29.3376 74.109 29.3901 73.9299 29.3901H71.3585C71.4604 29.5508 71.5901 29.6774 71.7477 29.7701C71.9052 29.8627 72.0766 29.9091 72.2619 29.9091C72.3762 29.9091 72.4704 29.8998 72.5446 29.8813C72.6187 29.8627 72.6866 29.8349 72.7484 29.7979C72.8658 29.7237 72.9847 29.6867 73.1052 29.6867C73.272 29.6867 73.4156 29.75 73.5361 29.8766C73.5886 29.9353 73.6303 30.0033 73.6612 30.0805C73.6921 30.1577 73.7075 30.238 73.7075 30.3214C73.7075 30.4295 73.6766 30.5299 73.6148 30.6226C73.5561 30.7152 73.4681 30.7955 73.3507 30.8635C73.082 31.0179 72.7191 31.0952 72.2619 31.0952ZM73.272 28.3616C73.1855 28.1731 73.0542 28.0249 72.8782 27.9168C72.7052 27.8056 72.5075 27.75 72.2851 27.75C72.0627 27.75 71.8681 27.8056 71.7013 27.9168C71.5345 28.028 71.4079 28.1762 71.3214 28.3616H73.272ZM77.2102 31.0952C76.9044 31.0952 76.6141 31.038 76.3392 30.9237C76.0673 30.8064 75.8264 30.6426 75.6164 30.4326C75.4063 30.2257 75.2426 29.9847 75.1253 29.7098C75.0079 29.4349 74.9492 29.1446 74.9492 28.8388C74.9492 28.533 75.0079 28.2426 75.1253 27.9677C75.2426 27.6898 75.4063 27.4457 75.6164 27.2357C75.8264 27.0257 76.0673 26.8635 76.3392 26.7492C76.6141 26.6318 76.9044 26.5731 77.2102 26.5731C77.4697 26.5731 77.6797 26.6056 77.8403 26.6704C78.004 26.7353 78.1368 26.8342 78.2388 26.967V25.5677C78.2388 25.3855 78.2975 25.2326 78.4148 25.1091C78.5291 24.9886 78.6743 24.9284 78.8503 24.9284C78.9337 24.9284 79.0141 24.9454 79.0913 24.9793C79.1685 25.0102 79.2349 25.0535 79.2905 25.1091C79.3461 25.1677 79.3893 25.2372 79.4202 25.3176C79.4542 25.3948 79.4712 25.4782 79.4712 25.5677V28.8388C79.4712 29.1446 79.4125 29.4349 79.2951 29.7098C79.1808 29.9816 79.0187 30.2226 78.8086 30.4326C78.6017 30.6396 78.3592 30.8017 78.0812 30.9191C77.8063 31.0365 77.516 31.0952 77.2102 31.0952ZM77.2102 29.8581C77.3492 29.8581 77.482 29.8318 77.6086 29.7793C77.7353 29.7268 77.8449 29.6542 77.9376 29.5616C78.0334 29.4658 78.1075 29.3562 78.16 29.2326C78.2125 29.1091 78.2388 28.9778 78.2388 28.8388C78.2388 28.6998 78.2125 28.5685 78.16 28.445C78.1075 28.3214 78.0334 28.2118 77.9376 28.116C77.8449 28.0233 77.7353 27.9508 77.6086 27.8982C77.482 27.8457 77.3492 27.8195 77.2102 27.8195C77.0743 27.8195 76.943 27.8457 76.8164 27.8982C76.6928 27.9508 76.5847 28.0233 76.492 28.116C76.3963 28.2118 76.3206 28.3214 76.265 28.445C76.2125 28.5685 76.1863 28.6998 76.1863 28.8388C76.1863 28.9778 76.2125 29.1091 76.265 29.2326C76.3206 29.3562 76.3963 29.4658 76.492 29.5616C76.5847 29.6542 76.6928 29.7268 76.8164 29.7793C76.943 29.8318 77.0743 29.8581 77.2102 29.8581ZM81.0141 31.0952C80.8164 31.0952 80.648 31.0257 80.509 30.8867C80.37 30.7477 80.3005 30.5793 80.3005 30.3816C80.3005 30.289 80.3191 30.1994 80.3561 30.1129C80.3932 30.0233 80.4442 29.9461 80.509 29.8813C80.577 29.8133 80.6542 29.7608 80.7407 29.7237C80.8272 29.6867 80.9183 29.6681 81.0141 29.6681C81.1067 29.6681 81.1963 29.6882 81.2828 29.7284C81.3724 29.7654 81.4496 29.8164 81.5144 29.8813C81.5793 29.9461 81.6303 30.0233 81.6673 30.1129C81.7044 30.1994 81.7229 30.289 81.7229 30.3816C81.7229 30.5793 81.6534 30.7477 81.5144 30.8867C81.4496 30.9515 81.3724 31.0025 81.2828 31.0396C81.1963 31.0766 81.1067 31.0952 81.0141 31.0952Z" fill="#4C41C0"/>
</svg>
