<svg width="25" height="24" viewBox="0 0 25 24" fill="none" xmlns="http://www.w3.org/2000/svg">
<g filter="url(#filter0_d_1752_21130)">
<path d="M12.5 0C13.6016 0 14.6641 0.140625 15.6875 0.421875C16.7109 0.703125 17.6641 1.10938 18.5469 1.64062C19.4297 2.17188 20.2383 2.79688 20.9727 3.51562C21.707 4.23438 22.3359 5.04297 22.8594 5.94141C23.3828 6.83984 23.7852 7.79688 24.0664 8.8125C24.3477 9.82812 24.4922 10.8906 24.5 12C24.5 13.1016 24.3594 14.1641 24.0781 15.1875C23.7969 16.2109 23.3906 17.1641 22.8594 18.0469C22.3281 18.9297 21.7031 19.7383 20.9844 20.4727C20.2656 21.207 19.457 21.8359 18.5586 22.3594C17.6602 22.8828 16.7031 23.2852 15.6875 23.5664C14.6719 23.8477 13.6094 23.9922 12.5 24C11.3984 24 10.3359 23.8594 9.3125 23.5781C8.28906 23.2969 7.33594 22.8906 6.45312 22.3594C5.57031 21.8281 4.76172 21.2031 4.02734 20.4844C3.29297 19.7656 2.66406 18.957 2.14062 18.0586C1.61719 17.1602 1.21484 16.2031 0.933594 15.1875C0.652344 14.1719 0.507812 13.1094 0.5 12C0.5 10.8984 0.640625 9.83594 0.921875 8.8125C1.20312 7.78906 1.60938 6.83594 2.14062 5.95312C2.67188 5.07031 3.29688 4.26172 4.01562 3.52734C4.73438 2.79297 5.54297 2.16406 6.44141 1.64062C7.33984 1.11719 8.29688 0.714844 9.3125 0.433594C10.3281 0.152344 11.3906 0.0078125 12.5 0ZM19.5664 8.02734L17.9727 6.43359L10.25 14.1562L7.02734 10.9336L5.43359 12.5273L10.25 17.3438L19.5664 8.02734Z" fill="#4CAF50"/>
</g>
<defs>
<filter id="filter0_d_1752_21130" x="-3.5" y="0" width="32" height="32" filterUnits="userSpaceOnUse" color-interpolation-filters="sRGB">
<feFlood flood-opacity="0" result="BackgroundImageFix"/>
<feColorMatrix in="SourceAlpha" type="matrix" values="0 0 0 0 0 0 0 0 0 0 0 0 0 0 0 0 0 0 127 0" result="hardAlpha"/>
<feOffset dy="4"/>
<feGaussianBlur stdDeviation="2"/>
<feComposite in2="hardAlpha" operator="out"/>
<feColorMatrix type="matrix" values="0 0 0 0 0 0 0 0 0 0 0 0 0 0 0 0 0 0 0.25 0"/>
<feBlend mode="normal" in2="BackgroundImageFix" result="effect1_dropShadow_1752_21130"/>
<feBlend mode="normal" in="SourceGraphic" in2="effect1_dropShadow_1752_21130" result="shape"/>
</filter>
</defs>
</svg>
