<svg width="24" height="26" viewBox="0 0 24 26" fill="none" xmlns="http://www.w3.org/2000/svg">
<path d="M1.33301 22.3333V3.66667C1.33301 2.95942 1.61396 2.28115 2.11406 1.78105C2.61415 1.28095 3.29243 1 3.99967 1H21.8663C22.0785 1 22.282 1.08429 22.432 1.23431C22.5821 1.38434 22.6663 1.58783 22.6663 1.8V19.2853M3.99967 19.6667H22.6663M3.99967 25H22.6663" stroke="#777777" stroke-width="2" stroke-linecap="round"/>
<path d="M3.99967 25.0001C3.29243 25.0001 2.61415 24.7191 2.11406 24.219C1.61396 23.7189 1.33301 23.0407 1.33301 22.3334C1.33301 21.6262 1.61396 20.9479 2.11406 20.4478C2.61415 19.9477 3.29243 19.6667 3.99967 19.6667" stroke="#777777" stroke-width="2" stroke-linecap="round" stroke-linejoin="round"/>
<path d="M8 6.33325H16" stroke="#777777" stroke-width="2" stroke-linecap="round"/>
</svg>
