<svg width="32" height="32" viewBox="0 0 32 32" fill="none" xmlns="http://www.w3.org/2000/svg">
<path d="M5.33301 23.9998C5.33301 22.5853 5.89491 21.2288 6.8951 20.2286C7.8953 19.2284 9.25185 18.6665 10.6663 18.6665H21.333C22.7475 18.6665 24.104 19.2284 25.1042 20.2286C26.1044 21.2288 26.6663 22.5853 26.6663 23.9998C26.6663 24.7071 26.3854 25.3854 25.8853 25.8855C25.3852 26.3856 24.7069 26.6665 23.9997 26.6665H7.99967C7.29243 26.6665 6.61415 26.3856 6.11406 25.8855C5.61396 25.3854 5.33301 24.7071 5.33301 23.9998Z" stroke="#777777" stroke-width="3.33333" stroke-linejoin="round"/>
<path d="M16 13.3333C18.2091 13.3333 20 11.5424 20 9.33325C20 7.12411 18.2091 5.33325 16 5.33325C13.7909 5.33325 12 7.12411 12 9.33325C12 11.5424 13.7909 13.3333 16 13.3333Z" stroke="#777777" stroke-width="3.33333"/>
</svg>
